0
SECTION
2
HEADER
9
$INSUNITS
70
4
9
$ACADVER
1
AC1014
9
$HANDSEED
5
FFFF
0
ENDSEC
0
SECTION
2
TABLES
0
TABLE
2
VPORT
5
8
100
AcDbSymbolTable
0
ENDTAB
0
TABLE
2
LTYPE
5
5
100
AcDbSymbolTable
0
LTYPE
5
14
100
AcDbSymbolTableRecord
100
AcDbLinetypeTableRecord
2
BYBLOCK
70
0
0
LTYPE
5
15
100
AcDbSymbolTableRecord
100
AcDbLinetypeTableRecord
2
BYLAYER
70
0
0
ENDTAB
0
TABLE
2
LAYER
5
2
100
AcDbSymbolTable
70
2
0
LAYER
5
50
100
AcDbSymbolTableRecord
100
AcDbLayerTableRecord
2
0
70
0
6
CONTINUOUS
0
ENDTAB
0
TABLE
2
STYLE
5
3
100
AcDbSymbolTable
70
1
0
STYLE
5
11
100
AcDbSymbolTableRecord
100
AcDbTextStyleTableRecord
2
STANDARD
70
0
0
ENDTAB
0
TABLE
2
VIEW
5
6
100
AcDbSymbolTable
70
0
0
ENDTAB
0
TABLE
2
UCS
5
7
100
AcDbSymbolTable
70
0
0
ENDTAB
0
TABLE
2
APPID
5
9
100
AcDbSymbolTable
70
2
0
APPID
5
12
100
AcDbSymbolTableRecord
100
AcDbRegAppTableRecord
2
ACAD
70
0
0
ENDTAB
0
TABLE
2
DIMSTYLE
5
A
100
AcDbSymbolTable
70
1
0
ENDTAB
0
TABLE
2
BLOCK_RECORD
5
1
100
AcDbSymbolTable
70
1
0
BLOCK_RECORD
5
1F
100
AcDbSymbolTableRecord
100
AcDbBlockTableRecord
2
*MODEL_SPACE
0
BLOCK_RECORD
5
1B
100
AcDbSymbolTableRecord
100
AcDbBlockTableRecord
2
*PAPER_SPACE
0
ENDTAB
0
ENDSEC
0
SECTION
2
BLOCKS
0
BLOCK
5
20
100
AcDbEntity
100
AcDbBlockBegin
2
*MODEL_SPACE
0
ENDBLK
5
21
100
AcDbEntity
100
AcDbBlockEnd
0
BLOCK
5
1C
100
AcDbEntity
100
AcDbBlockBegin
2
*PAPER_SPACE
0
ENDBLK
5
1D
100
AcDbEntity
100
AcDbBlockEnd
0
ENDSEC
0
SECTION
2
ENTITIES
0
CIRCLE
5
100
100
AcDbEntity
8
0
100
AcDbCircle
10
-8.4999999999999929
20
-11.5
30
0
40
1.4999999999999991
210
0
220
0
230
1
0
CIRCLE
5
101
100
AcDbEntity
8
0
100
AcDbCircle
10
-128.5
20
-11.5
30
0
40
1.4999999999999858
210
0
220
0
230
1
0
CIRCLE
5
102
100
AcDbEntity
8
0
100
AcDbCircle
10
-128.5
20
-32.5
30
0
40
1.5000000000000036
210
0
220
0
230
1
0
CIRCLE
5
103
100
AcDbEntity
8
0
100
AcDbCircle
10
-8.4999999999999929
20
-32.5
30
0
40
1.5000000000000002
210
0
220
0
230
1
0
CIRCLE
5
104
100
AcDbEntity
8
0
100
AcDbCircle
10
-8.5000000000000018
20
-22
30
0
40
1.5000000000000002
210
0
220
0
230
1
0
LINE
5
105
100
AcDbEntity
8
0
100
AcDbLine
10
-125.5
20
-24.5
30
0
11
-125.5
21
-19.5
31
0
0
LINE
5
106
100
AcDbEntity
8
0
100
AcDbLine
10
-125.5
20
-19.5
30
0
11
-11.500000000000004
21
-19.5
31
0
0
LINE
5
107
100
AcDbEntity
8
0
100
AcDbLine
10
-11.500000000000004
20
-19.5
30
0
11
-11.499999999999988
21
-24.5
31
0
0
LINE
5
108
100
AcDbEntity
8
0
100
AcDbLine
10
-11.499999999999988
20
-24.5
30
0
11
-125.49999999999999
21
-24.5
31
0
0
LWPOLYLINE
5
109
100
AcDbEntity
8
0
100
AcDbPolyline
90
52
70
1
43
0.0
10
-133
20
-29.333333333333336
10
-137
20
-29.333333333333336
10
-137
20
-44
10
-124.54545454545456
20
-44
10
-124.54545454545456
20
-40
10
-112.09090909090911
20
-40
10
-112.09090909090911
20
-44
10
-99.636363636363654
20
-44
10
-99.636363636363654
20
-40
10
-87.181818181818187
20
-40
10
-87.181818181818187
20
-44
10
-74.727272727272734
20
-44
10
-74.72727272727272
20
-40
10
-62.272727272727273
20
-40
10
-62.272727272727273
20
-44
10
-49.818181818181813
20
-44
10
-49.818181818181813
20
-40
10
-37.36363636363636
20
-40
10
-37.36363636363636
20
-44
10
-24.909090909090903
20
-44
10
-24.909090909090903
20
-40
10
-12.454545454545446
20
-40
10
-12.454545454545446
20
-44
10
8.8817841970012523e-15
20
-44
10
7.7796649900740975e-15
20
-29.333333333333336
10
-3.9999999999999925
20
-29.333333333333336
10
-3.9999999999999925
20
-14.666666666666668
10
7.7715611723760958e-15
20
-14.666666666666668
10
2.9605947323337525e-15
20
0
10
-12.454545454545446
20
0
10
-12.454545454545446
20
-4
10
-24.909090909090903
20
-4
10
-24.909090909090903
20
0
10
-37.36363636363636
20
0
10
-37.36363636363636
20
-4
10
-49.818181818181813
20
-4
10
-49.818181818181813
20
0
10
-62.272727272727273
20
0
10
-62.272727272727273
20
-4
10
-74.72727272727272
20
-4
10
-74.72727272727272
20
0
10
-87.181818181818187
20
0
10
-87.181818181818187
20
-4
10
-99.636363636363654
20
-4
10
-99.636363636363654
20
0
10
-112.09090909090911
20
0
10
-112.09090909090911
20
-4
10
-124.54545454545456
20
-4
10
-124.54545454545456
20
0
10
-137
20
0
10
-137
20
-14.666666666666668
10
-133
20
-14.666666666666668
0
CIRCLE
5
110
100
AcDbEntity
8
0
100
AcDbCircle
10
-128.5
20
-22
30
0
40
1.5000000000000036
210
0
220
-0
230
1
0
ENDSEC
0
SECTION
2
OBJECTS
0
DICTIONARY
5
C
100
AcDbDictionary
3
ACAD_GROUP
350
D
3
ACAD_MLINESTYLE
350
17
0
DICTIONARY
5
D
100
AcDbDictionary
0
DICTIONARY
5
1A
330
C
100
AcDbDictionary
0
DICTIONARY
5
17
100
AcDbDictionary
0
ENDSEC
0
EOF
