0
SECTION
2
HEADER
9
$INSUNITS
70
4
9
$ACADVER
1
AC1014
9
$HANDSEED
5
FFFF
0
ENDSEC
0
SECTION
2
TABLES
0
TABLE
2
VPORT
5
8
100
AcDbSymbolTable
0
ENDTAB
0
TABLE
2
LTYPE
5
5
100
AcDbSymbolTable
0
LTYPE
5
14
100
AcDbSymbolTableRecord
100
AcDbLinetypeTableRecord
2
BYBLOCK
70
0
0
LTYPE
5
15
100
AcDbSymbolTableRecord
100
AcDbLinetypeTableRecord
2
BYLAYER
70
0
0
ENDTAB
0
TABLE
2
LAYER
5
2
100
AcDbSymbolTable
70
2
0
LAYER
5
50
100
AcDbSymbolTableRecord
100
AcDbLayerTableRecord
2
0
70
0
6
CONTINUOUS
0
ENDTAB
0
TABLE
2
STYLE
5
3
100
AcDbSymbolTable
70
1
0
STYLE
5
11
100
AcDbSymbolTableRecord
100
AcDbTextStyleTableRecord
2
STANDARD
70
0
0
ENDTAB
0
TABLE
2
VIEW
5
6
100
AcDbSymbolTable
70
0
0
ENDTAB
0
TABLE
2
UCS
5
7
100
AcDbSymbolTable
70
0
0
ENDTAB
0
TABLE
2
APPID
5
9
100
AcDbSymbolTable
70
2
0
APPID
5
12
100
AcDbSymbolTableRecord
100
AcDbRegAppTableRecord
2
ACAD
70
0
0
ENDTAB
0
TABLE
2
DIMSTYLE
5
A
100
AcDbSymbolTable
70
1
0
ENDTAB
0
TABLE
2
BLOCK_RECORD
5
1
100
AcDbSymbolTable
70
1
0
BLOCK_RECORD
5
1F
100
AcDbSymbolTableRecord
100
AcDbBlockTableRecord
2
*MODEL_SPACE
0
BLOCK_RECORD
5
1B
100
AcDbSymbolTableRecord
100
AcDbBlockTableRecord
2
*PAPER_SPACE
0
ENDTAB
0
ENDSEC
0
SECTION
2
BLOCKS
0
BLOCK
5
20
100
AcDbEntity
100
AcDbBlockBegin
2
*MODEL_SPACE
0
ENDBLK
5
21
100
AcDbEntity
100
AcDbBlockEnd
0
BLOCK
5
1C
100
AcDbEntity
100
AcDbBlockBegin
2
*PAPER_SPACE
0
ENDBLK
5
1D
100
AcDbEntity
100
AcDbBlockEnd
0
ENDSEC
0
SECTION
2
ENTITIES
0
LWPOLYLINE
5
100
100
AcDbEntity
8
0
100
AcDbPolyline
90
4
70
1
43
0.0
10
0
20
-30
10
75
20
-30
10
75
20
0
10
0
20
0
0
LWPOLYLINE
5
101
100
AcDbEntity
8
0
100
AcDbPolyline
90
4
70
1
43
0.0
10
1.079297565891566
20
-29.306440490428763
10
74.284604256277078
20
-29.306440490428763
10
74.284604256277078
20
-0.99884170682486229
10
1.079297565891566
20
-0.99884170682486229
0
LINE
5
102
100
AcDbEntity
8
0
100
AcDbLine
10
22.485548199190916
20
-3.9562394061809449
30
0
11
24.596491993441404
21
-3.9562394061809449
31
0
0
LINE
5
103
100
AcDbEntity
8
0
100
AcDbLine
10
24.596491993441404
20
-3.9562394061809449
30
0
11
26.683448494448484
21
-7.0267041364436995
31
0
0
LINE
5
104
100
AcDbEntity
8
0
100
AcDbLine
10
26.683448494448484
20
-7.0267041364437013
30
0
11
28.758410156740965
21
-3.9562394061809454
31
0
0
LINE
5
105
100
AcDbEntity
8
0
100
AcDbLine
10
28.758410156740965
20
-3.9562394061809449
30
0
11
30.869356335177244
21
-3.9562394061809449
31
0
0
LINE
5
106
100
AcDbEntity
8
0
100
AcDbLine
10
30.869356335177244
20
-3.9562394061809449
30
0
11
30.869356335177244
21
-11.956239525390233
31
0
0
LINE
5
107
100
AcDbEntity
8
0
100
AcDbLine
10
30.869356335177244
20
-11.956239525390233
30
0
11
28.314632118716062
21
-11.956239525390233
31
0
0
LINE
5
108
100
AcDbEntity
8
0
100
AcDbLine
10
28.314632118716062
20
-11.956239525390233
30
0
11
28.314632118716062
21
-9.0776785054927718
31
0
0
LINE
5
109
100
AcDbEntity
8
0
100
AcDbLine
10
28.314632118716062
20
-9.0776785054927718
30
0
11
26.683448494448484
21
-11.476479355407323
31
0
0
LINE
5
110
100
AcDbEntity
8
0
100
AcDbLine
10
26.683448494448484
20
-11.476479355407323
30
0
11
25.040270031466306
21
-9.0776785054927718
31
0
0
LINE
5
111
100
AcDbEntity
8
0
100
AcDbLine
10
25.040270031466306
20
-9.0776785054927718
30
0
11
25.040270031466306
21
-11.956239525390233
31
0
0
LINE
5
112
100
AcDbEntity
8
0
100
AcDbLine
10
25.040270031466306
20
-11.956239525390233
30
0
11
22.485548199190916
21
-11.956239525390233
31
0
0
LINE
5
113
100
AcDbEntity
8
0
100
AcDbLine
10
22.485548199190916
20
-11.956239525390233
30
0
11
22.485548199190916
21
-3.9562394061809449
31
0
0
LINE
5
114
100
AcDbEntity
8
0
100
AcDbLine
10
23.996792973055662
20
-10.996719185424412
30
0
11
23.996792973055662
21
-5.491472069335547
31
0
0
LINE
5
115
100
AcDbEntity
8
0
100
AcDbLine
10
23.996792973055662
20
-5.491472069335547
30
0
11
26.683448494448484
21
-9.4015165010219466
31
0
0
LINE
5
116
100
AcDbEntity
8
0
100
AcDbLine
10
26.683448494448484
20
-9.4015165010219466
30
0
11
29.358111561312498
21
-5.4914720693355452
31
0
0
LINE
5
117
100
AcDbEntity
8
0
100
AcDbLine
10
29.358111561312498
20
-5.491472069335547
30
0
11
29.358111561312498
21
-10.996719185424412
31
0
0
LINE
5
118
100
AcDbEntity
8
0
100
AcDbLine
10
29.358111561312498
20
-10.996719185424412
30
0
11
29.669955910219969
21
-10.996719185424412
31
0
0
LINE
5
119
100
AcDbEntity
8
0
100
AcDbLine
10
29.669955910219969
20
-10.996719185424412
30
0
11
29.669955910219969
21
-4.9157597461467653
31
0
0
LINE
5
120
100
AcDbEntity
8
0
100
AcDbLine
10
29.669955910219969
20
-4.9157597461467653
30
0
11
29.358111561312498
21
-4.9157597461467653
31
0
0
LINE
5
121
100
AcDbEntity
8
0
100
AcDbLine
10
29.358111561312498
20
-4.9157597461467653
30
0
11
26.683448494448484
21
-8.8617869058376204
31
0
0
LINE
5
122
100
AcDbEntity
8
0
100
AcDbLine
10
26.683448494448484
20
-8.8617869058376204
30
0
11
23.996792973055662
21
-4.9157597461467644
31
0
0
LINE
5
123
100
AcDbEntity
8
0
100
AcDbLine
10
23.996792973055662
20
-4.9157597461467653
30
0
11
23.684948624148191
21
-4.9157597461467653
31
0
0
LINE
5
124
100
AcDbEntity
8
0
100
AcDbLine
10
23.684948624148191
20
-4.9157597461467653
30
0
11
23.684948624148191
21
-10.996719185424412
31
0
0
LINE
5
125
100
AcDbEntity
8
0
100
AcDbLine
10
23.684948624148191
20
-10.996719185424412
30
0
11
23.996792973055662
21
-10.996719185424412
31
0
0
SPLINE
5
126
100
AcDbEntity
8
0
100
AcDbSpline
70
0
71
2
72
6
73
3
74
0
42
0.000000001
43
0.0000000001
44
0.0000000001
40
0
40
0
40
0
40
1
40
1
40
1
10
31.529024780764402
20
-7.9622371831661116
30
0
10
31.529024780764402
20
-7.0986684003597169
30
0
10
31.852863968386472
20
-6.3310523668056398
30
0
0
SPLINE
5
127
100
AcDbEntity
8
0
100
AcDbSpline
70
0
71
2
72
6
73
3
74
0
42
0.000000001
43
0.0000000001
44
0.0000000001
40
0
40
0
40
0
40
1
40
1
40
1
10
31.852863968386472
20
-6.3310523668056398
30
0
10
32.188695610537351
20
-5.5634357372051149
30
0
10
32.752412498965086
20
-4.999717656684485
30
0
0
SPLINE
5
128
100
AcDbEntity
8
0
100
AcDbSpline
70
0
71
2
72
6
73
3
74
0
42
0.000000001
43
0.0000000001
44
0.0000000001
40
0
40
0
40
0
40
1
40
1
40
1
10
32.752412498965086
20
-4.999717656684485
30
0
10
33.328126610293211
20
-4.424005929542151
30
0
10
34.095743835940183
20
-4.1001673379665284
30
0
0
SPLINE
5
129
100
AcDbEntity
8
0
100
AcDbSpline
70
0
71
2
72
6
73
3
74
0
42
0.000000001
43
0.0000000001
44
0.0000000001
40
0
40
0
40
0
40
1
40
1
40
1
10
34.095743835940183
20
-4.1001673379665284
30
0
10
34.863358677401365
20
-3.7643356958156495
30
0
10
35.726927460207762
20
-3.7643356958156495
30
0
0
SPLINE
5
130
100
AcDbEntity
8
0
100
AcDbSpline
70
0
71
2
72
6
73
3
74
0
42
0.000000001
43
0.0000000001
44
0.0000000001
40
0
40
0
40
0
40
1
40
1
40
1
10
35.726927460207762
20
-3.7643356958156495
30
0
10
36.590493858828367
20
-3.7643356958156495
30
0
10
37.35811108447534
20
-4.1001673379665284
30
0
0
SPLINE
5
131
100
AcDbEntity
8
0
100
AcDbSpline
70
0
71
2
72
6
73
3
74
0
42
0.000000001
43
0.0000000001
44
0.0000000001
40
0
40
0
40
0
40
1
40
1
40
1
10
37.35811108447534
20
-4.1001673379665284
30
0
10
38.125728310122312
20
-4.424005929542151
30
0
10
38.689445198550047
20
-4.999717656684485
30
0
0
SPLINE
5
132
100
AcDbEntity
8
0
100
AcDbSpline
70
0
71
2
72
6
73
3
74
0
42
0.000000001
43
0.0000000001
44
0.0000000001
40
0
40
0
40
0
40
1
40
1
40
1
10
38.689445198550047
20
-4.999717656684485
30
0
10
39.265156925692381
20
-5.5634357372051149
30
0
10
39.588996113314451
20
-6.3310523668056398
30
0
0
SPLINE
5
133
100
AcDbEntity
8
0
100
AcDbSpline
70
0
71
2
72
6
73
3
74
0
42
0.000000001
43
0.0000000001
44
0.0000000001
40
0
40
0
40
0
40
1
40
1
40
1
10
39.588996113314451
20
-6.3310523668056398
30
0
10
39.92482775546533
20
-7.0986684003597169
30
0
10
39.92482775546533
20
-7.9622371831661116
30
0
0
SPLINE
5
134
100
AcDbEntity
8
0
100
AcDbSpline
70
0
71
2
72
6
73
3
74
0
42
0.000000001
43
0.0000000001
44
0.0000000001
40
0
40
0
40
0
40
1
40
1
40
1
10
39.92482775546533
20
-7.9622371831661116
30
0
10
39.92482775546533
20
-8.8258047738796126
30
0
10
39.588996113314451
20
-9.5934208074336897
30
0
0
SPLINE
5
135
100
AcDbEntity
8
0
100
AcDbSpline
70
0
71
2
72
6
73
3
74
0
42
0.000000001
43
0.0000000001
44
0.0000000001
40
0
40
0
40
0
40
1
40
1
40
1
10
39.588996113314451
20
-9.5934208074336897
30
0
10
39.265156925692381
20
-10.361036840987767
30
0
10
38.689445198550047
20
-10.936749760222996
30
0
0
SPLINE
5
136
100
AcDbEntity
8
0
100
AcDbSpline
70
0
71
2
72
6
73
3
74
0
42
0.000000001
43
0.0000000001
44
0.0000000001
40
0
40
0
40
0
40
1
40
1
40
1
10
38.689445198550047
20
-10.936749760222996
30
0
10
38.125728310122312
20
-11.500467840743626
30
0
10
37.35811108447534
20
-11.836299482894505
30
0
0
SPLINE
5
137
100
AcDbEntity
8
0
100
AcDbSpline
70
0
71
2
72
6
73
3
74
0
42
0.000000001
43
0.0000000001
44
0.0000000001
40
0
40
0
40
0
40
1
40
1
40
1
10
37.35811108447534
20
-11.836299482894505
30
0
10
36.590493858828367
20
-12.16013747842368
30
0
10
35.726927460207762
20
-12.16013747842368
30
0
0
SPLINE
5
138
100
AcDbEntity
8
0
100
AcDbSpline
70
0
71
2
72
6
73
3
74
0
42
0.000000001
43
0.0000000001
44
0.0000000001
40
0
40
0
40
0
40
1
40
1
40
1
10
35.726927460207762
20
-12.16013747842368
30
0
10
34.863358677401365
20
-12.16013747842368
30
0
10
34.095743835940183
20
-11.836299482894505
30
0
0
SPLINE
5
139
100
AcDbEntity
8
0
100
AcDbSpline
70
0
71
2
72
6
73
3
74
0
42
0.000000001
43
0.0000000001
44
0.0000000001
40
0
40
0
40
0
40
1
40
1
40
1
10
34.095743835940183
20
-11.836299482894505
30
0
10
33.328126610293211
20
-11.500467840743626
30
0
10
32.752412498965086
20
-10.936749760222996
30
0
0
SPLINE
5
140
100
AcDbEntity
8
0
100
AcDbSpline
70
0
71
2
72
6
73
3
74
0
42
0.000000001
43
0.0000000001
44
0.0000000001
40
0
40
0
40
0
40
1
40
1
40
1
10
32.752412498965086
20
-10.936749760222996
30
0
10
32.188695610537351
20
-10.361036840987767
30
0
10
31.852863968386472
20
-9.5934208074336897
30
0
0
SPLINE
5
141
100
AcDbEntity
8
0
100
AcDbSpline
70
0
71
2
72
6
73
3
74
0
42
0.000000001
43
0.0000000001
44
0.0000000001
40
0
40
0
40
0
40
1
40
1
40
1
10
31.852863968386472
20
-9.5934208074336897
30
0
10
31.529024780764402
20
-8.8258047738796126
30
0
10
31.529024780764402
20
-7.9622371831661116
30
0
0
SPLINE
5
142
100
AcDbEntity
8
0
100
AcDbSpline
70
0
71
2
72
6
73
3
74
0
42
0.000000001
43
0.0000000001
44
0.0000000001
40
0
40
0
40
0
40
1
40
1
40
1
10
32.656463325991453
20
-7.9622371831661116
30
0
10
32.656463325991453
20
-8.5979183355098616
30
0
10
32.896341026797117
20
-9.1616364160304915
30
0
0
SPLINE
5
143
100
AcDbEntity
8
0
100
AcDbSpline
70
0
71
2
72
6
73
3
74
0
42
0.000000001
43
0.0000000001
44
0.0000000001
40
0
40
0
40
0
40
1
40
1
40
1
10
32.896341026797117
20
-9.1616364160304915
30
0
10
33.136223495974363
20
-9.7133608499294173
30
0
10
33.556011856570066
20
-10.133150402618016
30
0
0
SPLINE
5
144
100
AcDbEntity
8
0
100
AcDbSpline
70
0
71
2
72
6
73
3
74
0
42
0.000000001
43
0.0000000001
44
0.0000000001
40
0
40
0
40
0
40
1
40
1
40
1
10
33.556011856570066
20
-10.133150402618016
30
0
10
33.97580260135156
20
-10.55294114739951
30
0
10
34.527527035250486
20
-10.792821232390965
30
0
0
SPLINE
5
145
100
AcDbEntity
8
0
100
AcDbSpline
70
0
71
2
72
6
73
3
74
0
42
0.000000001
43
0.0000000001
44
0.0000000001
40
0
40
0
40
0
40
1
40
1
40
1
10
34.527527035250486
20
-10.792821232390965
30
0
10
35.091243923678221
20
-11.03270131738242
30
0
10
35.726927460207762
20
-11.03270131738242
30
0
0
SPLINE
5
146
100
AcDbEntity
8
0
100
AcDbSpline
70
0
71
2
72
6
73
3
74
0
42
0.000000001
43
0.0000000001
44
0.0000000001
40
0
40
0
40
0
40
1
40
1
40
1
10
35.726927460207762
20
-11.03270131738242
30
0
10
36.362608612551512
20
-11.03270131738242
30
0
10
36.914333046450437
20
-10.792821232390965
30
0
0
SPLINE
5
147
100
AcDbEntity
8
0
100
AcDbSpline
70
0
71
2
72
6
73
3
74
0
42
0.000000001
43
0.0000000001
44
0.0000000001
40
0
40
0
40
0
40
1
40
1
40
1
10
36.914333046450437
20
-10.792821232390965
30
0
10
37.478049934878172
20
-10.55294114739951
30
0
10
37.897840679659666
20
-10.133150402618016
30
0
0
SPLINE
5
148
100
AcDbEntity
8
0
100
AcDbSpline
70
0
71
2
72
6
73
3
74
0
42
0.000000001
43
0.0000000001
44
0.0000000001
40
0
40
0
40
0
40
1
40
1
40
1
10
37.897840679659666
20
-10.133150402618016
30
0
10
38.31763142444116
20
-9.7133608499294173
30
0
10
38.557511509432615
20
-9.1616364160304915
30
0
0
SPLINE
5
149
100
AcDbEntity
8
0
100
AcDbSpline
70
0
71
2
72
6
73
3
74
0
42
0.000000001
43
0.0000000001
44
0.0000000001
40
0
40
0
40
0
40
1
40
1
40
1
10
38.557511509432615
20
-9.1616364160304915
30
0
10
38.79739159442407
20
-8.5979183355098616
30
0
10
38.79739159442407
20
-7.9622371831661116
30
0
0
SPLINE
5
150
100
AcDbEntity
8
0
100
AcDbSpline
70
0
71
2
72
6
73
3
74
0
42
0.000000001
43
0.0000000001
44
0.0000000001
40
0
40
0
40
0
40
1
40
1
40
1
10
38.79739159442407
20
-7.9622371831661116
30
0
10
38.79739159442407
20
-7.3265542426830201
30
0
10
38.557511509432615
20
-6.7748304048305421
30
0
0
SPLINE
5
151
100
AcDbEntity
8
0
100
AcDbSpline
70
0
71
2
72
6
73
3
74
0
42
0.000000001
43
0.0000000001
44
0.0000000001
40
0
40
0
40
0
40
1
40
1
40
1
10
38.557511509432615
20
-6.7748304048305421
30
0
10
38.31763142444116
20
-6.2111123243099122
30
0
10
37.897840679659666
20
-5.7913221755748658
30
0
0
SPLINE
5
152
100
AcDbEntity
8
0
100
AcDbSpline
70
0
71
2
72
6
73
3
74
0
42
0.000000001
43
0.0000000001
44
0.0000000001
40
0
40
0
40
0
40
1
40
1
40
1
10
37.897840679659666
20
-5.7913221755748658
30
0
10
37.478049934878172
20
-5.3715320268398195
30
0
10
36.914333046450437
20
-5.1316519418483644
30
0
0
SPLINE
5
153
100
AcDbEntity
8
0
100
AcDbSpline
70
0
71
2
72
6
73
3
74
0
42
0.000000001
43
0.0000000001
44
0.0000000001
40
0
40
0
40
0
40
1
40
1
40
1
10
36.914333046450437
20
-5.1316519418483644
30
0
10
36.362608612551512
20
-4.8917718568569093
30
0
10
35.726927460207762
20
-4.8917718568569093
30
0
0
SPLINE
5
154
100
AcDbEntity
8
0
100
AcDbSpline
70
0
71
2
72
6
73
3
74
0
42
0.000000001
43
0.0000000001
44
0.0000000001
40
0
40
0
40
0
40
1
40
1
40
1
10
35.726927460207762
20
-4.8917718568569093
30
0
10
35.091243923678221
20
-4.8917718568569093
30
0
10
34.527527035250486
20
-5.1316519418483644
30
0
0
SPLINE
5
155
100
AcDbEntity
8
0
100
AcDbSpline
70
0
71
2
72
6
73
3
74
0
42
0.000000001
43
0.0000000001
44
0.0000000001
40
0
40
0
40
0
40
1
40
1
40
1
10
34.527527035250486
20
-5.1316519418483644
30
0
10
33.97580260135156
20
-5.3715320268398195
30
0
10
33.556011856570066
20
-5.7913221755748658
30
0
0
SPLINE
5
156
100
AcDbEntity
8
0
100
AcDbSpline
70
0
71
2
72
6
73
3
74
0
42
0.000000001
43
0.0000000001
44
0.0000000001
40
0
40
0
40
0
40
1
40
1
40
1
10
33.556011856570066
20
-5.7913221755748658
30
0
10
33.136223495974363
20
-6.2111123243099122
30
0
10
32.896341026797117
20
-6.7748304048305421
30
0
0
SPLINE
5
157
100
AcDbEntity
8
0
100
AcDbSpline
70
0
71
2
72
6
73
3
74
0
42
0.000000001
43
0.0000000001
44
0.0000000001
40
0
40
0
40
0
40
1
40
1
40
1
10
32.896341026797117
20
-6.7748304048305421
30
0
10
32.656463325991453
20
-7.3265542426830201
30
0
10
32.656463325991453
20
-7.9622371831661116
30
0
0
SPLINE
5
158
100
AcDbEntity
8
0
100
AcDbSpline
70
0
71
2
72
6
73
3
74
0
42
0.000000001
43
0.0000000001
44
0.0000000001
40
0
40
0
40
0
40
1
40
1
40
1
10
34.047766865267576
20
-7.9622371831661116
30
0
10
34.047766865267576
20
-8.3100624719386946
30
0
10
34.179700554385008
20
-8.6219068208461653
30
0
0
SPLINE
5
159
100
AcDbEntity
8
0
100
AcDbSpline
70
0
71
2
72
6
73
3
74
0
42
0.000000001
43
0.0000000001
44
0.0000000001
40
0
40
0
40
0
40
1
40
1
40
1
10
34.179700554385008
20
-8.6219068208461653
30
0
10
34.311634243502439
20
-8.9217563310390364
30
0
10
34.539521873965086
20
-9.1496427694087874
30
0
0
SPLINE
5
160
100
AcDbEntity
8
0
100
AcDbSpline
70
0
71
2
72
6
73
3
74
0
42
0.000000001
43
0.0000000001
44
0.0000000001
40
0
40
0
40
0
40
1
40
1
40
1
10
34.539521873965086
20
-9.1496427694087874
30
0
10
34.767407120241941
20
-9.3775292077785384
30
0
10
35.067256630434812
20
-9.50946289689597
30
0
0
SPLINE
5
161
100
AcDbEntity
8
0
100
AcDbSpline
70
0
71
2
72
6
73
3
74
0
42
0.000000001
43
0.0000000001
44
0.0000000001
40
0
40
0
40
0
40
1
40
1
40
1
10
35.067256630434812
20
-9.50946289689597
30
0
10
35.379100979342283
20
-9.6413965860134017
30
0
10
35.726927460207762
20
-9.6413965860134017
30
0
0
SPLINE
5
162
100
AcDbEntity
8
0
100
AcDbSpline
70
0
71
2
72
6
73
3
74
0
42
0.000000001
43
0.0000000001
44
0.0000000001
40
0
40
0
40
0
40
1
40
1
40
1
10
35.726927460207762
20
-9.6413965860134017
30
0
10
36.074751556887449
20
-9.6413965860134017
30
0
10
36.374603451266111
20
-9.50946289689597
30
0
0
SPLINE
5
163
100
AcDbEntity
8
0
100
AcDbSpline
70
0
71
2
72
6
73
3
74
0
42
0.000000001
43
0.0000000001
44
0.0000000001
40
0
40
0
40
0
40
1
40
1
40
1
10
36.374603451266111
20
-9.50946289689597
30
0
10
36.686447800173582
20
-9.3775292077785384
30
0
10
36.914333046450437
20
-9.1496427694087874
30
0
0
SPLINE
5
164
100
AcDbEntity
8
0
100
AcDbSpline
70
0
71
2
72
6
73
3
74
0
42
0.000000001
43
0.0000000001
44
0.0000000001
40
0
40
0
40
0
40
1
40
1
40
1
10
36.914333046450437
20
-9.1496427694087874
30
0
10
37.142218292727293
20
-8.9217563310390364
30
0
10
37.274154366030515
20
-8.6219068208461653
30
0
0
SPLINE
5
165
100
AcDbEntity
8
0
100
AcDbSpline
70
0
71
2
72
6
73
3
74
0
42
0.000000001
43
0.0000000001
44
0.0000000001
40
0
40
0
40
0
40
1
40
1
40
1
10
37.274154366030515
20
-8.6219068208461653
30
0
10
37.406085670962156
20
-8.3100624719386946
30
0
10
37.406085670962156
20
-7.9622371831661116
30
0
0
SPLINE
5
166
100
AcDbEntity
8
0
100
AcDbSpline
70
0
71
2
72
6
73
3
74
0
42
0.000000001
43
0.0000000001
44
0.0000000001
40
0
40
0
40
0
40
1
40
1
40
1
10
37.406085670962156
20
-7.9622371831661116
30
0
10
37.406085670962156
20
-7.6144107023006349
30
0
10
37.274154366030515
20
-7.3145600000148683
30
0
0
SPLINE
5
167
100
AcDbEntity
8
0
100
AcDbSpline
70
0
71
2
72
6
73
3
74
0
42
0.000000001
43
0.0000000001
44
0.0000000001
40
0
40
0
40
0
40
1
40
1
40
1
10
37.274154366030515
20
-7.3145600000148683
30
0
10
37.142218292727293
20
-7.0027162471538453
30
0
10
36.914333046450437
20
-6.7748304048305421
30
0
0
SPLINE
5
168
100
AcDbEntity
8
0
100
AcDbSpline
70
0
71
2
72
6
73
3
74
0
42
0.000000001
43
0.0000000001
44
0.0000000001
40
0
40
0
40
0
40
1
40
1
40
1
10
36.914333046450437
20
-6.7748304048305421
30
0
10
36.686447800173582
20
-6.5469439664607911
30
0
10
36.374603451266111
20
-6.4150102773433595
30
0
0
SPLINE
5
169
100
AcDbEntity
8
0
100
AcDbSpline
70
0
71
2
72
6
73
3
74
0
42
0.000000001
43
0.0000000001
44
0.0000000001
40
0
40
0
40
0
40
1
40
1
40
1
10
36.374603451266111
20
-6.4150102773433595
30
0
10
36.074751556887449
20
-6.2830759921794801
30
0
10
35.726927460207762
20
-6.2830759921794801
30
0
0
SPLINE
5
170
100
AcDbEntity
8
0
100
AcDbSpline
70
0
71
2
72
6
73
3
74
0
42
0.000000001
43
0.0000000001
44
0.0000000001
40
0
40
0
40
0
40
1
40
1
40
1
10
35.726927460207762
20
-6.2830759921794801
30
0
10
35.379100979342283
20
-6.2830759921794801
30
0
10
35.067256630434812
20
-6.4150102773433595
30
0
0
SPLINE
5
171
100
AcDbEntity
8
0
100
AcDbSpline
70
0
71
2
72
6
73
3
74
0
42
0.000000001
43
0.0000000001
44
0.0000000001
40
0
40
0
40
0
40
1
40
1
40
1
10
35.067256630434812
20
-6.4150102773433595
30
0
10
34.767407120241941
20
-6.5469439664607911
30
0
10
34.539521873965086
20
-6.7748304048305421
30
0
0
SPLINE
5
172
100
AcDbEntity
8
0
100
AcDbSpline
70
0
71
2
72
6
73
3
74
0
42
0.000000001
43
0.0000000001
44
0.0000000001
40
0
40
0
40
0
40
1
40
1
40
1
10
34.539521873965086
20
-6.7748304048305421
30
0
10
34.311634243502439
20
-7.0027162471538453
30
0
10
34.179700554385008
20
-7.3145600000148683
30
0
0
SPLINE
5
173
100
AcDbEntity
8
0
100
AcDbSpline
70
0
71
2
72
6
73
3
74
0
42
0.000000001
43
0.0000000001
44
0.0000000001
40
0
40
0
40
0
40
1
40
1
40
1
10
34.179700554385008
20
-7.3145600000148683
30
0
10
34.047766865267576
20
-7.6144107023006349
30
0
10
34.047766865267576
20
-7.9622371831661116
30
0
0
SPLINE
5
174
100
AcDbEntity
8
0
100
AcDbSpline
70
0
71
2
72
6
73
3
74
0
42
0.000000001
43
0.0000000001
44
0.0000000001
40
0
40
0
40
0
40
1
40
1
40
1
10
35.726927460207762
20
-10.72085696847495
30
0
10
35.151213348879637
20
-10.72085696847495
30
0
10
34.647465885653318
20
-10.504965368819798
30
0
0
SPLINE
5
175
100
AcDbEntity
8
0
100
AcDbSpline
70
0
71
2
72
6
73
3
74
0
42
0.000000001
43
0.0000000001
44
0.0000000001
40
0
40
0
40
0
40
1
40
1
40
1
10
34.647465885653318
20
-10.504965368819798
30
0
10
34.155710876955808
20
-10.289072577071751
30
0
10
33.771904648318113
20
-9.9172588029628646
30
0
0
SPLINE
5
176
100
AcDbEntity
8
0
100
AcDbSpline
70
0
71
2
72
6
73
3
74
0
42
0.000000001
43
0.0000000001
44
0.0000000001
40
0
40
0
40
0
40
1
40
1
40
1
10
33.771904648318113
20
-9.9172588029628646
30
0
10
33.400090874209226
20
-9.5334513822322737
30
0
10
33.18419808246118
20
-9.041696373534764
30
0
0
SPLINE
5
177
100
AcDbEntity
8
0
100
AcDbSpline
70
0
71
2
72
6
73
3
74
0
42
0.000000001
43
0.0000000001
44
0.0000000001
40
0
40
0
40
0
40
1
40
1
40
1
10
33.18419808246118
20
-9.041696373534764
30
0
10
32.968305290713133
20
-8.5379489103084456
30
0
10
32.968305290713133
20
-7.9622371831661116
30
0
0
SPLINE
5
178
100
AcDbEntity
8
0
100
AcDbSpline
70
0
71
2
72
6
73
3
74
0
42
0.000000001
43
0.0000000001
44
0.0000000001
40
0
40
0
40
0
40
1
40
1
40
1
10
32.968305290713133
20
-7.9622371831661116
30
0
10
32.968305290713133
20
-7.3865242639308839
30
0
10
33.18419808246118
20
-6.8947704473262696
30
0
0
SPLINE
5
179
100
AcDbEntity
8
0
100
AcDbSpline
70
0
71
2
72
6
73
3
74
0
42
0.000000001
43
0.0000000001
44
0.0000000001
40
0
40
0
40
0
40
1
40
1
40
1
10
33.18419808246118
20
-6.8947704473262696
30
0
10
33.400090874209226
20
-6.3910223880535035
30
0
10
33.771904648318113
20
-6.0192080178981691
30
0
0
SPLINE
5
180
100
AcDbEntity
8
0
100
AcDbSpline
70
0
71
2
72
6
73
3
74
0
42
0.000000001
43
0.0000000001
44
0.0000000001
40
0
40
0
40
0
40
1
40
1
40
1
10
33.771904648318113
20
-6.0192080178981691
30
0
10
34.155710876955808
20
-5.6354000011211305
30
0
10
34.647465885653318
20
-5.4195078054195314
30
0
0
SPLINE
5
181
100
AcDbEntity
8
0
100
AcDbSpline
70
0
71
2
72
6
73
3
74
0
42
0.000000001
43
0.0000000001
44
0.0000000001
40
0
40
0
40
0
40
1
40
1
40
1
10
34.647465885653318
20
-5.4195078054195314
30
0
10
35.151213348879637
20
-5.2036156097179322
30
0
10
35.726927460207762
20
-5.2036156097179322
30
0
0
SPLINE
5
182
100
AcDbEntity
8
0
100
AcDbSpline
70
0
71
2
72
6
73
3
74
0
42
0.000000001
43
0.0000000001
44
0.0000000001
40
0
40
0
40
0
40
1
40
1
40
1
10
35.726927460207762
20
-5.2036156097179322
30
0
10
36.302639187350096
20
-5.2036156097179322
30
0
10
36.794394196047605
20
-5.4195078054195314
30
0
0
SPLINE
5
183
100
AcDbEntity
8
0
100
AcDbSpline
70
0
71
2
72
6
73
3
74
0
42
0.000000001
43
0.0000000001
44
0.0000000001
40
0
40
0
40
0
40
1
40
1
40
1
10
36.794394196047605
20
-5.4195078054195314
30
0
10
37.298141659273924
20
-5.6354000011211305
30
0
10
37.66995543338281
20
-6.0192080178981691
30
0
0
SPLINE
5
184
100
AcDbEntity
8
0
100
AcDbSpline
70
0
71
2
72
6
73
3
74
0
42
0.000000001
43
0.0000000001
44
0.0000000001
40
0
40
0
40
0
40
1
40
1
40
1
10
37.66995543338281
20
-6.0192080178981691
30
0
10
38.053764046206297
20
-6.3910223880535035
30
0
10
38.269656837954344
20
-6.8947704473262696
30
0
0
SPLINE
5
185
100
AcDbEntity
8
0
100
AcDbSpline
70
0
71
2
72
6
73
3
74
0
42
0.000000001
43
0.0000000001
44
0.0000000001
40
0
40
0
40
0
40
1
40
1
40
1
10
38.269656837954344
20
-6.8947704473262696
30
0
10
38.485547245516599
20
-7.3865242639308839
30
0
10
38.485547245516599
20
-7.9622371831661116
30
0
0
SPLINE
5
186
100
AcDbEntity
8
0
100
AcDbSpline
70
0
71
2
72
6
73
3
74
0
42
0.000000001
43
0.0000000001
44
0.0000000001
40
0
40
0
40
0
40
1
40
1
40
1
10
38.485547245516599
20
-7.9622371831661116
30
0
10
38.485547245516599
20
-8.5379489103084456
30
0
10
38.269656837954344
20
-9.041696373534764
30
0
0
SPLINE
5
187
100
AcDbEntity
8
0
100
AcDbSpline
70
0
71
2
72
6
73
3
74
0
42
0.000000001
43
0.0000000001
44
0.0000000001
40
0
40
0
40
0
40
1
40
1
40
1
10
38.269656837954344
20
-9.041696373534764
30
0
10
38.053764046206297
20
-9.5334513822322737
30
0
10
37.66995543338281
20
-9.9172588029628646
30
0
0
SPLINE
5
188
100
AcDbEntity
8
0
100
AcDbSpline
70
0
71
2
72
6
73
3
74
0
42
0.000000001
43
0.0000000001
44
0.0000000001
40
0
40
0
40
0
40
1
40
1
40
1
10
37.66995543338281
20
-9.9172588029628646
30
0
10
37.298141659273924
20
-10.289072577071751
30
0
10
36.794394196047605
20
-10.504965368819798
30
0
0
SPLINE
5
189
100
AcDbEntity
8
0
100
AcDbSpline
70
0
71
2
72
6
73
3
74
0
42
0.000000001
43
0.0000000001
44
0.0000000001
40
0
40
0
40
0
40
1
40
1
40
1
10
36.794394196047605
20
-10.504965368819798
30
0
10
36.302639187350096
20
-10.72085696847495
30
0
10
35.726927460207762
20
-10.72085696847495
30
0
0
LINE
5
190
100
AcDbEntity
8
0
100
AcDbLine
10
40.584496201052488
20
-11.956239525390233
30
0
11
40.584496201052488
21
-3.9562394061809449
31
0
0
LINE
5
191
100
AcDbEntity
8
0
100
AcDbLine
10
40.584496201052488
20
-3.9562394061809449
30
0
11
42.803386391177
21
-3.9562394061809449
31
0
0
SPLINE
5
192
100
AcDbEntity
8
0
100
AcDbSpline
70
0
71
2
72
6
73
3
74
0
42
0.000000001
43
0.0000000001
44
0.0000000001
40
0
40
0
40
0
40
1
40
1
40
1
10
42.803386391177
20
-3.9562394061809449
30
0
10
43.930824936404051
20
-3.9562394061809449
30
0
10
44.806388557925047
20
-4.2081137338405519
30
0
0
SPLINE
5
193
100
AcDbEntity
8
0
100
AcDbSpline
70
0
71
2
72
6
73
3
74
0
42
0.000000001
43
0.0000000001
44
0.0000000001
40
0
40
0
40
0
40
1
40
1
40
1
10
44.806388557925047
20
-4.2081137338405519
30
0
10
45.693944633974851
20
-4.4599874654537111
30
0
10
46.293643654360594
20
-4.9637361207729249
30
0
0
SPLINE
5
194
100
AcDbEntity
8
0
100
AcDbSpline
70
0
71
2
72
6
73
3
74
0
42
0.000000001
43
0.0000000001
44
0.0000000001
40
0
40
0
40
0
40
1
40
1
40
1
10
46.293643654360594
20
-4.9637361207729249
30
0
10
46.905339897646726
20
-5.467484180045691
30
0
10
47.217181862368406
20
-6.2231059709316163
30
0
0
SPLINE
5
195
100
AcDbEntity
8
0
100
AcDbSpline
70
0
71
2
72
6
73
3
74
0
42
0.000000001
43
0.0000000001
44
0.0000000001
40
0
40
0
40
0
40
1
40
1
40
1
10
47.217181862368406
20
-6.2231059709316163
30
0
10
47.541021049990476
20
-6.9667347112422853
30
0
10
47.541021049990476
20
-7.950242344451512
30
0
0
SPLINE
5
196
100
AcDbEntity
8
0
100
AcDbSpline
70
0
71
2
72
6
73
3
74
0
42
0.000000001
43
0.0000000001
44
0.0000000001
40
0
40
0
40
0
40
1
40
1
40
1
10
47.541021049990476
20
-7.950242344451512
30
0
10
47.541021049990476
20
-8.933751169753636
30
0
10
47.217181862368406
20
-9.6893723645931136
30
0
0
SPLINE
5
197
100
AcDbEntity
8
0
100
AcDbSpline
70
0
71
2
72
6
73
3
74
0
42
0.000000001
43
0.0000000001
44
0.0000000001
40
0
40
0
40
0
40
1
40
1
40
1
10
47.217181862368406
20
-9.6893723645931136
30
0
10
46.905339897646726
20
-10.433001104903783
30
0
10
46.293643654360594
20
-10.936749760222996
30
0
0
SPLINE
5
198
100
AcDbEntity
8
0
100
AcDbSpline
70
0
71
2
72
6
73
3
74
0
42
0.000000001
43
0.0000000001
44
0.0000000001
40
0
40
0
40
0
40
1
40
1
40
1
10
46.293643654360594
20
-10.936749760222996
30
0
10
45.693944633974851
20
-11.440497223449315
30
0
10
44.806388557925047
20
-11.704365793777074
30
0
0
SPLINE
5
199
100
AcDbEntity
8
0
100
AcDbSpline
70
0
71
2
72
6
73
3
74
0
42
0.000000001
43
0.0000000001
44
0.0000000001
40
0
40
0
40
0
40
1
40
1
40
1
10
44.806388557925047
20
-11.704365793777074
30
0
10
43.930824936404051
20
-11.956239525390233
30
0
10
42.803386391177
20
-11.956239525390233
30
0
0
LINE
5
200
100
AcDbEntity
8
0
100
AcDbLine
10
42.803386391177
20
-11.956239525390233
30
0
11
40.584496201052488
21
-11.956239525390233
31
0
0
LINE
5
201
100
AcDbEntity
8
0
100
AcDbLine
10
42.095740974917234
20
-10.708863321853245
30
0
11
42.095740974917234
21
-5.20361620576438
31
0
0
LINE
5
202
100
AcDbEntity
8
0
100
AcDbLine
10
42.095740974917234
20
-5.20361620576438
30
0
11
42.803386391177
21
-5.20361620576438
31
0
0
SPLINE
5
203
100
AcDbEntity
8
0
100
AcDbSpline
70
0
71
2
72
6
73
3
74
0
42
0.000000001
43
0.0000000001
44
0.0000000001
40
0
40
0
40
0
40
1
40
1
40
1
10
42.803386391177
20
-5.20361620576438
30
0
10
44.326623619570555
20
-5.20361620576438
30
0
10
45.166209877505125
20
-5.8992679754024415
30
0
0
SPLINE
5
204
100
AcDbEntity
8
0
100
AcDbSpline
70
0
71
2
72
6
73
3
74
0
42
0.000000001
43
0.0000000001
44
0.0000000001
40
0
40
0
40
0
40
1
40
1
40
1
10
45.166209877505125
20
-5.8992679754024415
30
0
10
46.017783821596922
20
-6.5829260984187989
30
0
10
46.017783821596922
20
-7.950242344451512
30
0
0
SPLINE
5
205
100
AcDbEntity
8
0
100
AcDbSpline
70
0
71
2
72
6
73
3
74
0
42
0.000000001
43
0.0000000001
44
0.0000000001
40
0
40
0
40
0
40
1
40
1
40
1
10
46.017783821596922
20
-7.950242344451512
30
0
10
46.017783821596922
20
-9.3175585904842269
30
0
10
45.166209877505125
20
-10.013211552215184
30
0
0
SPLINE
5
206
100
AcDbEntity
8
0
100
AcDbSpline
70
0
71
2
72
6
73
3
74
0
42
0.000000001
43
0.0000000001
44
0.0000000001
40
0
40
0
40
0
40
1
40
1
40
1
10
45.166209877505125
20
-10.013211552215184
30
0
10
44.326623619570555
20
-10.708863321853245
30
0
10
42.803386391177
20
-10.708863321853245
30
0
0
LINE
5
207
100
AcDbEntity
8
0
100
AcDbLine
10
42.803386391177
20
-10.708863321853245
30
0
11
42.095740974917234
21
-10.708863321853245
31
0
0
LINE
5
208
100
AcDbEntity
8
0
100
AcDbLine
10
41.783899010195555
20
-10.996719185424412
30
0
11
42.803386391177
21
-10.996719185424412
31
0
0
SPLINE
5
209
100
AcDbEntity
8
0
100
AcDbSpline
70
0
71
2
72
6
73
3
74
0
42
0.000000001
43
0.0000000001
44
0.0000000001
40
0
40
0
40
0
40
1
40
1
40
1
10
42.803386391177
20
-10.996719185424412
30
0
10
44.554513634218992
20
-10.996719185424412
30
0
10
45.442069710268797
20
-10.205114666534032
30
0
0
SPLINE
5
210
100
AcDbEntity
8
0
100
AcDbSpline
70
0
71
2
72
6
73
3
74
0
42
0.000000001
43
0.0000000001
44
0.0000000001
40
0
40
0
40
0
40
1
40
1
40
1
10
45.442069710268797
20
-10.205114666534032
30
0
10
46.34161824084741
20
-9.4015165010219466
30
0
10
46.34161824084741
20
-7.950242344451512
30
0
0
SPLINE
5
211
100
AcDbEntity
8
0
100
AcDbSpline
70
0
71
2
72
6
73
3
74
0
42
0.000000001
43
0.0000000001
44
0.0000000001
40
0
40
0
40
0
40
1
40
1
40
1
10
46.34161824084741
20
-7.950242344451512
30
0
10
46.34161824084741
20
-6.4989681878810792
30
0
10
45.442069710268797
20
-5.7073642650371461
30
0
0
SPLINE
5
212
100
AcDbEntity
8
0
100
AcDbSpline
70
0
71
2
72
6
73
3
74
0
42
0.000000001
43
0.0000000001
44
0.0000000001
40
0
40
0
40
0
40
1
40
1
40
1
10
45.442069710268797
20
-5.7073642650371461
30
0
10
44.554513634218992
20
-4.9157597461467653
30
0
10
42.803386391177
20
-4.9157597461467653
30
0
0
LINE
5
213
100
AcDbEntity
8
0
100
AcDbLine
10
42.803386391177
20
-4.9157597461467653
30
0
11
41.783899010195555
21
-4.9157597461467653
31
0
0
LINE
5
214
100
AcDbEntity
8
0
100
AcDbLine
10
41.783899010195555
20
-4.9157597461467653
30
0
11
41.783899010195555
21
-10.996719185424412
31
0
0
SPLINE
5
215
100
AcDbEntity
8
0
100
AcDbSpline
70
0
71
2
72
6
73
3
74
0
42
0.000000001
43
0.0000000001
44
0.0000000001
40
0
40
0
40
0
40
1
40
1
40
1
10
43.139222801699461
20
-9.6773787179714095
30
0
10
44.038771332278074
20
-9.6773787179714095
30
0
10
44.530523956789793
20
-9.2575891652828108
30
0
0
SPLINE
5
216
100
AcDbEntity
8
0
100
AcDbSpline
70
0
71
2
72
6
73
3
74
0
42
0.000000001
43
0.0000000001
44
0.0000000001
40
0
40
0
40
0
40
1
40
1
40
1
10
44.530523956789793
20
-9.2575891652828108
30
0
10
45.022281349673094
20
-8.8258047738796126
30
0
10
45.022281349673094
20
-7.950242344451512
30
0
0
SPLINE
5
217
100
AcDbEntity
8
0
100
AcDbSpline
70
0
71
2
72
6
73
3
74
0
42
0.000000001
43
0.0000000001
44
0.0000000001
40
0
40
0
40
0
40
1
40
1
40
1
10
45.022281349673094
20
-7.950242344451512
30
0
10
45.022281349673094
20
-7.074680511069861
30
0
10
44.530523956789793
20
-6.6548903623348146
30
0
0
SPLINE
5
218
100
AcDbEntity
8
0
100
AcDbSpline
70
0
71
2
72
6
73
3
74
0
42
0.000000001
43
0.0000000001
44
0.0000000001
40
0
40
0
40
0
40
1
40
1
40
1
10
44.530523956789793
20
-6.6548903623348146
30
0
10
44.038771332278074
20
-6.2351002135997682
30
0
10
43.139222801699461
20
-6.2351002135997682
30
0
0
LINE
5
219
100
AcDbEntity
8
0
100
AcDbLine
10
43.139222801699461
20
-6.2351002135997682
30
0
11
43.139222801699461
21
-9.6773787179714095
31
0
0
LINE
5
220
100
AcDbEntity
8
0
100
AcDbLine
10
48.200687111391844
20
-3.9562394061809449
30
0
11
52.914332092776121
21
-3.9562394061809449
31
0
0
LINE
5
221
100
AcDbEntity
8
0
100
AcDbLine
10
52.914332092776121
20
-3.9562394061809449
30
0
11
52.914332092776121
21
-6.0551901498561769
31
0
0
LINE
5
222
100
AcDbEntity
8
0
100
AcDbLine
10
52.914332092776121
20
-6.0551901498561769
30
0
11
50.755408943667234
21
-6.0551901498561769
31
0
0
LINE
5
223
100
AcDbEntity
8
0
100
AcDbLine
10
50.755408943667234
20
-6.0551901498561769
30
0
11
50.755408943667234
21
-6.9427462259059816
31
0
0
LINE
5
224
100
AcDbEntity
8
0
100
AcDbLine
10
50.755408943667234
20
-6.9427462259059816
30
0
11
52.878349960818113
21
-6.9427462259059816
31
0
0
LINE
5
225
100
AcDbEntity
8
0
100
AcDbLine
10
52.878349960818113
20
-6.9427462259059816
30
0
11
52.878349960818113
21
-8.9337511697536378
31
0
0
LINE
5
226
100
AcDbEntity
8
0
100
AcDbLine
10
52.878349960818113
20
-8.933751169753636
30
0
11
50.755408943667234
21
-8.933751169753636
31
0
0
LINE
5
227
100
AcDbEntity
8
0
100
AcDbLine
10
50.755408943667234
20
-8.933751169753636
30
0
11
50.755408943667234
21
-9.8572893777614485
31
0
0
LINE
5
228
100
AcDbEntity
8
0
100
AcDbLine
10
50.755408943667234
20
-9.8572893777614485
30
0
11
52.998288811220945
21
-9.8572893777614485
31
0
0
LINE
5
229
100
AcDbEntity
8
0
100
AcDbLine
10
52.998288811220945
20
-9.8572893777614485
30
0
11
52.998288811220945
21
-11.956239525390233
31
0
0
LINE
5
230
100
AcDbEntity
8
0
100
AcDbLine
10
52.998288811220945
20
-11.956239525390233
30
0
11
48.200687111391844
21
-11.956239525390233
31
0
0
LINE
5
231
100
AcDbEntity
8
0
100
AcDbLine
10
48.200687111391844
20
-11.956239525390233
30
0
11
48.200687111391844
21
-3.9562394061809449
31
0
0
LINE
5
232
100
AcDbEntity
8
0
100
AcDbLine
10
52.11073273517114
20
-10.996719185424412
30
0
11
52.11073273517114
21
-10.708863321853245
31
0
0
LINE
5
233
100
AcDbEntity
8
0
100
AcDbLine
10
52.11073273517114
20
-10.708863321853245
30
0
11
49.71193188525659
21
-10.708863321853245
31
0
0
LINE
5
234
100
AcDbEntity
8
0
100
AcDbLine
10
49.71193188525659
20
-10.708863321853245
30
0
11
49.71193188525659
21
-8.0821760335689437
31
0
0
LINE
5
235
100
AcDbEntity
8
0
100
AcDbLine
10
49.71193188525659
20
-8.0821760335689437
30
0
11
51.990793884768308
21
-8.0821760335689437
31
0
0
LINE
5
236
100
AcDbEntity
8
0
100
AcDbLine
10
51.990793884768308
20
-8.0821760335689437
30
0
11
51.990793884768308
21
-7.7943201699977767
31
0
0
LINE
5
237
100
AcDbEntity
8
0
100
AcDbLine
10
51.990793884768308
20
-7.7943201699977767
30
0
11
49.71193188525659
21
-7.7943201699977767
31
0
0
LINE
5
238
100
AcDbEntity
8
0
100
AcDbLine
10
49.71193188525659
20
-7.7943201699977767
30
0
11
49.71193188525659
21
-5.2036162057643782
31
0
0
LINE
5
239
100
AcDbEntity
8
0
100
AcDbLine
10
49.71193188525659
20
-5.20361620576438
30
0
11
52.11073273517114
21
-5.20361620576438
31
0
0
LINE
5
240
100
AcDbEntity
8
0
100
AcDbLine
10
52.11073273517114
20
-5.20361620576438
30
0
11
52.11073273517114
21
-4.9157597461467653
31
0
0
LINE
5
241
100
AcDbEntity
8
0
100
AcDbLine
10
52.11073273517114
20
-4.9157597461467653
30
0
11
49.40008992053491
21
-4.9157597461467653
31
0
0
LINE
5
242
100
AcDbEntity
8
0
100
AcDbLine
10
49.40008992053491
20
-4.9157597461467653
30
0
11
49.40008992053491
21
-10.996719185424412
31
0
0
LINE
5
243
100
AcDbEntity
8
0
100
AcDbLine
10
49.40008992053491
20
-10.996719185424412
30
0
11
52.11073273517114
21
-10.996719185424412
31
0
0
SPLINE
5
244
100
AcDbEntity
8
0
100
AcDbSpline
70
0
71
2
72
6
73
3
74
0
42
0.000000001
43
0.0000000001
44
0.0000000001
40
0
40
0
40
0
40
1
40
1
40
1
10
21.645969093813719
20
-21.395519558501803
30
0
10
21.645969093813719
20
-22.223106209350192
30
0
10
21.358112038149656
20
-22.810810391021334
30
0
0
SPLINE
5
245
100
AcDbEntity
8
0
100
AcDbSpline
70
0
71
2
72
6
73
3
74
0
42
0.000000001
43
0.0000000001
44
0.0000000001
40
0
40
0
40
0
40
1
40
1
40
1
10
21.358112038149656
20
-22.810810391021334
30
0
10
21.070257366671385
20
-23.386524502349459
30
0
10
20.566508711352171
20
-23.746343437743747
30
0
0
SPLINE
5
246
100
AcDbEntity
8
0
100
AcDbSpline
70
0
71
2
72
6
73
3
74
0
42
0.000000001
43
0.0000000001
44
0.0000000001
40
0
40
0
40
0
40
1
40
1
40
1
10
20.566508711352171
20
-23.746343437743747
30
0
10
20.074754894747556
20
-24.106164757323825
30
0
10
19.403090418352903
20
-24.274080578399264
30
0
0
SPLINE
5
247
100
AcDbEntity
8
0
100
AcDbSpline
70
0
71
2
72
6
73
3
74
0
42
0.000000001
43
0.0000000001
44
0.0000000001
40
0
40
0
40
0
40
1
40
1
40
1
10
19.403090418352903
20
-24.274080578399264
30
0
10
18.743419588579954
20
-24.441996399474704
30
0
10
17.975803555025877
20
-24.441996399474704
30
0
0
LINE
5
248
100
AcDbEntity
8
0
100
AcDbLine
10
17.975803555025877
20
-24.441996399474704
30
0
11
17.975803555025877
21
-26.349042240691745
31
0
0
LINE
5
249
100
AcDbEntity
8
0
100
AcDbLine
10
17.975803555025877
20
-26.349042240691745
30
0
11
15.421080530657591
21
-26.349042240691745
31
0
0
LINE
5
250
100
AcDbEntity
8
0
100
AcDbLine
10
15.421080530657591
20
-26.349042240691745
30
0
11
15.421080530657591
21
-18.349042717528903
31
0
0
LINE
5
251
100
AcDbEntity
8
0
100
AcDbLine
10
15.421080530657591
20
-18.349042717528903
30
0
11
17.975803555025877
21
-18.349042717528903
31
0
0
SPLINE
5
252
100
AcDbEntity
8
0
100
AcDbSpline
70
0
71
2
72
6
73
3
74
0
42
0.000000001
43
0.0000000001
44
0.0000000001
40
0
40
0
40
0
40
1
40
1
40
1
10
17.975803555025877
20
-18.349042717528903
30
0
10
18.743419588579954
20
-18.349042717528903
30
0
10
19.403090418352903
20
-18.516958538604342
30
0
0
SPLINE
5
253
100
AcDbEntity
8
0
100
AcDbSpline
70
0
71
2
72
6
73
3
74
0
42
0.000000001
43
0.0000000001
44
0.0000000001
40
0
40
0
40
0
40
1
40
1
40
1
10
19.403090418352903
20
-18.516958538604342
30
0
10
20.074754894747556
20
-18.684874359679782
30
0
10
20.566508711352171
20
-19.044693295074069
30
0
0
SPLINE
5
254
100
AcDbEntity
8
0
100
AcDbSpline
70
0
71
2
72
6
73
3
74
0
42
0.000000001
43
0.0000000001
44
0.0000000001
40
0
40
0
40
0
40
1
40
1
40
1
10
20.566508711352171
20
-19.044693295074069
30
0
10
21.070257366671385
20
-19.404514614654147
30
0
10
21.358112038149656
20
-19.992221180511081
30
0
0
SPLINE
5
255
100
AcDbEntity
8
0
100
AcDbSpline
70
0
71
2
72
6
73
3
74
0
42
0.000000001
43
0.0000000001
44
0.0000000001
40
0
40
0
40
0
40
1
40
1
40
1
10
21.358112038149656
20
-19.992221180511081
30
0
10
21.645969093813719
20
-20.567932907653415
30
0
10
21.645969093813719
20
-21.395519558501803
30
0
0
SPLINE
5
256
100
AcDbEntity
8
0
100
AcDbSpline
70
0
71
2
72
6
73
3
74
0
42
0.000000001
43
0.0000000001
44
0.0000000001
40
0
40
0
40
0
40
1
40
1
40
1
10
20.482550800814451
20
-21.395519558501803
30
0
10
20.482550800814451
20
-20.855787579131686
30
0
10
20.290646494402708
20
-20.459986511779391
30
0
0
SPLINE
5
257
100
AcDbEntity
8
0
100
AcDbSpline
70
0
71
2
72
6
73
3
74
0
42
0.000000001
43
0.0000000001
44
0.0000000001
40
0
40
0
40
0
40
1
40
1
40
1
10
20.290646494402708
20
-20.459986511779391
30
0
10
20.110737026705564
20
-20.064185444427096
30
0
10
19.77490419246179
20
-19.812310520721041
30
0
0
SPLINE
5
258
100
AcDbEntity
8
0
100
AcDbSpline
70
0
71
2
72
6
73
3
74
0
42
0.000000001
43
0.0000000001
44
0.0000000001
40
0
40
0
40
0
40
1
40
1
40
1
10
19.77490419246179
20
-19.812310520721041
30
0
10
19.439071358218015
20
-19.560435597014987
30
0
10
18.971306026949705
20
-19.440496746612155
30
0
0
SPLINE
5
259
100
AcDbEntity
8
0
100
AcDbSpline
70
0
71
2
72
6
73
3
74
0
42
0.000000001
43
0.0000000001
44
0.0000000001
40
0
40
0
40
0
40
1
40
1
40
1
10
18.971306026949705
20
-19.440496746612155
30
0
10
18.515533150210203
20
-19.308563057494723
30
0
10
17.975803555025877
20
-19.308563057494723
30
0
0
LINE
5
260
100
AcDbEntity
8
0
100
AcDbLine
10
17.975803555025877
20
-19.308563057494723
30
0
11
16.620480955614866
21
-19.308563057494723
31
0
0
LINE
5
261
100
AcDbEntity
8
0
100
AcDbLine
10
16.620480955614866
20
-19.308563057494723
30
0
11
16.620480955614866
21
-25.389521900725924
31
0
0
LINE
5
262
100
AcDbEntity
8
0
100
AcDbLine
10
16.620480955614866
20
-25.389521900725924
30
0
11
16.932325304522337
21
-25.389521900725924
31
0
0
LINE
5
263
100
AcDbEntity
8
0
100
AcDbLine
10
16.932325304522337
20
-25.389521900725924
30
0
11
16.932325304522337
21
-23.482476059508883
31
0
0
LINE
5
264
100
AcDbEntity
8
0
100
AcDbLine
10
16.932325304522337
20
-23.482476059508883
30
0
11
17.975803555025877
21
-23.482476059508883
31
0
0
SPLINE
5
265
100
AcDbEntity
8
0
100
AcDbSpline
70
0
71
2
72
6
73
3
74
0
42
0.000000001
43
0.0000000001
44
0.0000000001
40
0
40
0
40
0
40
1
40
1
40
1
10
17.975803555025877
20
-23.482476059508883
30
0
10
18.515533150210203
20
-23.482476059508883
30
0
10
18.971306026949705
20
-23.36253482492026
30
0
0
SPLINE
5
266
100
AcDbEntity
8
0
100
AcDbSpline
70
0
71
2
72
6
73
3
74
0
42
0.000000001
43
0.0000000001
44
0.0000000001
40
0
40
0
40
0
40
1
40
1
40
1
10
18.971306026949705
20
-23.36253482492026
30
0
10
19.439071358218015
20
-23.230601135802829
30
0
10
19.77490419246179
20
-22.978728596282565
30
0
0
SPLINE
5
267
100
AcDbEntity
8
0
100
AcDbSpline
70
0
71
2
72
6
73
3
74
0
42
0.000000001
43
0.0000000001
44
0.0000000001
40
0
40
0
40
0
40
1
40
1
40
1
10
19.77490419246179
20
-22.978728596282565
30
0
10
20.110737026705564
20
-22.72685367257651
30
0
10
20.290646494402708
20
-22.331050221038424
30
0
0
SPLINE
5
268
100
AcDbEntity
8
0
100
AcDbSpline
70
0
71
2
72
6
73
3
74
0
42
0.000000001
43
0.0000000001
44
0.0000000001
40
0
40
0
40
0
40
1
40
1
40
1
10
20.290646494402708
20
-22.331050221038424
30
0
10
20.482550800814451
20
-21.935249153686129
30
0
10
20.482550800814451
20
-21.395519558501803
30
0
0
SPLINE
5
269
100
AcDbEntity
8
0
100
AcDbSpline
70
0
71
2
72
6
73
3
74
0
42
0.000000001
43
0.0000000001
44
0.0000000001
40
0
40
0
40
0
40
1
40
1
40
1
10
20.146719158663572
20
-21.395519558501803
30
0
10
20.146719158663572
20
-21.911261860442721
30
0
10
19.966808498873533
20
-22.259085957122409
30
0
0
SPLINE
5
270
100
AcDbEntity
8
0
100
AcDbSpline
70
0
71
2
72
6
73
3
74
0
42
0.000000001
43
0.0000000001
44
0.0000000001
40
0
40
0
40
0
40
1
40
1
40
1
10
19.966808498873533
20
-22.259085957122409
30
0
10
19.786897839083494
20
-22.606912437987887
30
0
10
19.487048328890623
20
-22.810810391021334
30
0
0
SPLINE
5
271
100
AcDbEntity
8
0
100
AcDbSpline
70
0
71
2
72
6
73
3
74
0
42
0.000000001
43
0.0000000001
44
0.0000000001
40
0
40
0
40
0
40
1
40
1
40
1
10
19.487048328890623
20
-22.810810391021334
30
0
10
19.187197626604856
20
-23.014710728240573
30
0
10
18.791395367159666
20
-23.110662285399997
30
0
0
SPLINE
5
272
100
AcDbEntity
8
0
100
AcDbSpline
70
0
71
2
72
6
73
3
74
0
42
0.000000001
43
0.0000000001
44
0.0000000001
40
0
40
0
40
0
40
1
40
1
40
1
10
18.791395367159666
20
-23.110662285399997
30
0
10
18.407587946429075
20
-23.194619003844821
30
0
10
17.975803555025877
20
-23.194619003844821
30
0
0
LINE
5
273
100
AcDbEntity
8
0
100
AcDbLine
10
17.975803555025877
20
-23.194619003844821
30
0
11
16.932325304522337
21
-23.194619003844821
31
0
0
LINE
5
274
100
AcDbEntity
8
0
100
AcDbLine
10
16.932325304522337
20
-23.194619003844821
30
0
11
16.932325304522337
21
-19.596417728972995
31
0
0
LINE
5
275
100
AcDbEntity
8
0
100
AcDbLine
10
16.932325304522337
20
-19.596417728972995
30
0
11
17.975803555025877
21
-19.596417728972995
31
0
0
SPLINE
5
276
100
AcDbEntity
8
0
100
AcDbSpline
70
0
71
2
72
6
73
3
74
0
42
0.000000001
43
0.0000000001
44
0.0000000001
40
0
40
0
40
0
40
1
40
1
40
1
10
17.975803555025877
20
-19.596417728972995
30
0
10
18.407587946429075
20
-19.596417728972995
30
0
10
18.791395367159666
20
-19.692371670318209
30
0
0
SPLINE
5
277
100
AcDbEntity
8
0
100
AcDbSpline
70
0
71
2
72
6
73
3
74
0
42
0.000000001
43
0.0000000001
44
0.0000000001
40
0
40
0
40
0
40
1
40
1
40
1
10
18.791395367159666
20
-19.692371670318209
30
0
10
19.187197626604856
20
-19.776328388763034
30
0
10
19.487048328890623
20
-19.980226341796481
30
0
0
SPLINE
5
278
100
AcDbEntity
8
0
100
AcDbSpline
70
0
71
2
72
6
73
3
74
0
42
0.000000001
43
0.0000000001
44
0.0000000001
40
0
40
0
40
0
40
1
40
1
40
1
10
19.487048328890623
20
-19.980226341796481
30
0
10
19.786897839083494
20
-20.184124294829928
30
0
10
19.966808498873533
20
-20.531950775695407
30
0
0
SPLINE
5
279
100
AcDbEntity
8
0
100
AcDbSpline
70
0
71
2
72
6
73
3
74
0
42
0.000000001
43
0.0000000001
44
0.0000000001
40
0
40
0
40
0
40
1
40
1
40
1
10
19.966808498873533
20
-20.531950775695407
30
0
10
20.146719158663572
20
-20.879777256560885
30
0
10
20.146719158663572
20
-21.395519558501803
30
0
0
LINE
5
280
100
AcDbEntity
8
0
100
AcDbLine
10
17.975803555025877
20
-22.283075634551608
30
0
11
18.0837499508999
21
-22.283075634551608
31
0
0
SPLINE
5
281
100
AcDbEntity
8
0
100
AcDbSpline
70
0
71
2
72
6
73
3
74
0
42
0.000000001
43
0.0000000001
44
0.0000000001
40
0
40
0
40
0
40
1
40
1
40
1
10
18.0837499508999
20
-22.283075634551608
30
0
10
18.587497414126219
20
-22.283075634551608
30
0
10
18.803390205874265
20
-22.055190388274752
30
0
0
SPLINE
5
282
100
AcDbEntity
8
0
100
AcDbSpline
70
0
71
2
72
6
73
3
74
0
42
0.000000001
43
0.0000000001
44
0.0000000001
40
0
40
0
40
0
40
1
40
1
40
1
10
18.803390205874265
20
-22.055190388274752
30
0
10
19.031275452151121
20
-21.815307919097506
30
0
10
19.031275452151121
20
-21.395519558501803
30
0
0
SPLINE
5
283
100
AcDbEntity
8
0
100
AcDbSpline
70
0
71
2
72
6
73
3
74
0
42
0.000000001
43
0.0000000001
44
0.0000000001
40
0
40
0
40
0
40
1
40
1
40
1
10
19.031275452151121
20
-21.395519558501803
30
0
10
19.031275452151121
20
-20.975728813720309
30
0
10
18.803390205874265
20
-20.747843567443454
30
0
0
SPLINE
5
284
100
AcDbEntity
8
0
100
AcDbSpline
70
0
71
2
72
6
73
3
74
0
42
0.000000001
43
0.0000000001
44
0.0000000001
40
0
40
0
40
0
40
1
40
1
40
1
10
18.803390205874265
20
-20.747843567443454
30
0
10
18.587497414126219
20
-20.507963482451999
30
0
10
18.0837499508999
20
-20.507963482451999
30
0
0
LINE
5
285
100
AcDbEntity
8
0
100
AcDbLine
10
18.0837499508999
20
-20.507963482451999
30
0
11
17.975803555025877
21
-20.507963482451999
31
0
0
LINE
5
286
100
AcDbEntity
8
0
100
AcDbLine
10
17.975803555025877
20
-20.507963482451999
30
0
11
17.975803555025877
21
-22.283075634551608
31
0
0
LINE
5
287
100
AcDbEntity
8
0
100
AcDbLine
10
22.245668114199461
20
-18.349042717528903
30
0
11
24.908336342348875
21
-18.349042717528903
31
0
0
LINE
5
288
100
AcDbEntity
8
0
100
AcDbLine
10
24.908336342348875
20
-18.349042717528903
30
0
11
24.908336342348875
21
-24.250090900970065
31
0
0
LINE
5
289
100
AcDbEntity
8
0
100
AcDbLine
10
24.908336342348875
20
-24.250090900970065
30
0
11
27.115234077944578
21
-24.250090900970065
31
0
0
LINE
5
290
100
AcDbEntity
8
0
100
AcDbLine
10
27.115234077944578
20
-24.250090900970065
30
0
11
27.115234077944578
21
-26.349042240691745
31
0
0
LINE
5
291
100
AcDbEntity
8
0
100
AcDbLine
10
27.115234077944578
20
-26.349042240691745
30
0
11
22.245668114199461
21
-26.349042240691745
31
0
0
LINE
5
292
100
AcDbEntity
8
0
100
AcDbLine
10
22.245668114199461
20
-26.349042240691745
30
0
11
22.245668114199461
21
-18.349042717528903
31
0
0
LINE
5
293
100
AcDbEntity
8
0
100
AcDbLine
10
26.44357079364282
20
-25.389521900725924
30
0
11
26.44357079364282
21
-25.101664845061862
31
0
0
LINE
5
294
100
AcDbEntity
8
0
100
AcDbLine
10
26.44357079364282
20
-25.101664845061862
30
0
11
23.756912888064207
21
-25.101664845061862
31
0
0
LINE
5
295
100
AcDbEntity
8
0
100
AcDbLine
10
23.756912888064207
20
-25.101664845061862
30
0
11
23.756912888064207
21
-19.308563057494723
31
0
0
LINE
5
296
100
AcDbEntity
8
0
100
AcDbLine
10
23.756912888064207
20
-19.308563057494723
30
0
11
23.445068539156736
21
-19.308563057494723
31
0
0
LINE
5
297
100
AcDbEntity
8
0
100
AcDbLine
10
23.445068539156736
20
-19.308563057494723
30
0
11
23.445068539156736
21
-25.389521900725924
31
0
0
LINE
5
298
100
AcDbEntity
8
0
100
AcDbLine
10
23.445068539156736
20
-25.389521900725924
30
0
11
26.44357079364282
21
-25.389521900725924
31
0
0
LINE
5
299
100
AcDbEntity
8
0
100
AcDbLine
10
29.909838379397215
20
-18.349042717528903
30
0
11
31.828876675143064
21
-18.349042717528903
31
0
0
LINE
5
300
100
AcDbEntity
8
0
100
AcDbLine
10
31.828876675143064
20
-18.349042717528903
30
0
11
34.863361061587156
21
-26.349042240691745
31
0
0
LINE
5
301
100
AcDbEntity
8
0
100
AcDbLine
10
34.863361061587156
20
-26.349042240691745
30
0
11
32.344618977083982
21
-26.349042240691745
31
0
0
LINE
5
302
100
AcDbEntity
8
0
100
AcDbLine
10
32.344618977083982
20
-26.349042240691745
30
0
11
32.080751598849119
21
-25.629401985717379
31
0
0
LINE
5
303
100
AcDbEntity
8
0
100
AcDbLine
10
32.080751598849119
20
-25.629401985717379
30
0
11
29.65796345569116
21
-25.629401985717379
31
0
0
LINE
5
304
100
AcDbEntity
8
0
100
AcDbLine
10
29.65796345569116
20
-25.629401985717379
30
0
11
29.394096077456297
21
-26.349042240691745
31
0
0
LINE
5
305
100
AcDbEntity
8
0
100
AcDbLine
10
29.394096077456297
20
-26.349042240691745
30
0
11
26.875353992953123
21
-26.349042240691745
31
0
0
LINE
5
306
100
AcDbEntity
8
0
100
AcDbLine
10
26.875353992953123
20
-26.349042240691745
30
0
11
29.909838379397215
21
-18.349042717528903
31
0
0
LINE
5
307
100
AcDbEntity
8
0
100
AcDbLine
10
31.40908593036157
20
-23.86628467233237
30
0
11
30.869358719363035
21
-22.462986294341647
31
0
0
LINE
5
308
100
AcDbEntity
8
0
100
AcDbLine
10
30.869358719363035
20
-22.462986294341647
30
0
11
30.329626739992918
21
-23.86628467233237
31
0
0
LINE
5
309
100
AcDbEntity
8
0
100
AcDbLine
10
30.329626739992918
20
-23.86628467233237
30
0
11
31.40908593036157
21
-23.86628467233237
31
0
0
LINE
5
310
100
AcDbEntity
8
0
100
AcDbLine
10
28.662460983767332
20
-25.389521900725924
30
0
11
28.890346230044187
21
-24.789822880340182
31
0
0
LINE
5
311
100
AcDbEntity
8
0
100
AcDbLine
10
28.890346230044187
20
-24.789822880340182
30
0
11
32.848366440310301
21
-24.789822880340182
31
0
0
LINE
5
312
100
AcDbEntity
8
0
100
AcDbLine
10
32.848366440310301
20
-24.789822880340182
30
0
11
33.076254070772947
21
-25.389521900725924
31
0
0
LINE
5
313
100
AcDbEntity
8
0
100
AcDbLine
10
33.076254070772947
20
-25.389521900725924
30
0
11
33.412085712923826
21
-25.389521900725924
31
0
0
LINE
5
314
100
AcDbEntity
8
0
100
AcDbLine
10
33.412085712923826
20
-25.389521900725924
30
0
11
31.09724396563989
21
-19.308563057494723
31
0
0
LINE
5
315
100
AcDbEntity
8
0
100
AcDbLine
10
31.09724396563989
20
-19.308563057494723
30
0
11
30.641471088900389
21
-19.308563057494723
31
0
0
LINE
5
316
100
AcDbEntity
8
0
100
AcDbLine
10
30.641471088900389
20
-19.308563057494723
30
0
11
28.326629341616453
21
-25.389521900725924
31
0
0
LINE
5
317
100
AcDbEntity
8
0
100
AcDbLine
10
28.326629341616453
20
-25.389521900725924
30
0
11
28.662460983767332
21
-25.389521900725924
31
0
0
LINE
5
318
100
AcDbEntity
8
0
100
AcDbLine
10
30.869358719363035
20
-19.596417728972995
30
0
11
32.740422428622068
21
-24.50196582467612
31
0
0
LINE
5
319
100
AcDbEntity
8
0
100
AcDbLine
10
32.740422428622068
20
-24.50196582467612
30
0
11
28.998292625918211
21
-24.50196582467612
31
0
0
LINE
5
320
100
AcDbEntity
8
0
100
AcDbLine
10
28.998292625918211
20
-24.50196582467612
30
0
11
30.869358719363035
21
-19.596417728972995
31
0
0
LINE
5
321
100
AcDbEntity
8
0
100
AcDbLine
10
36.866358459963621
20
-22.906764332366549
30
0
11
34.383600891604246
21
-18.349042717528903
31
0
0
LINE
5
322
100
AcDbEntity
8
0
100
AcDbLine
10
34.383600891604246
20
-18.349042717528903
30
0
11
37.226179779543699
21
-18.349042717528903
31
0
0
LINE
5
323
100
AcDbEntity
8
0
100
AcDbLine
10
37.226179779543699
20
-18.349042717528903
30
0
11
38.149717987551512
21
-20.040195766997897
31
0
0
LINE
5
324
100
AcDbEntity
8
0
100
AcDbLine
10
38.149717987551512
20
-20.040195766997897
30
0
11
39.061261356844724
21
-18.349042717528903
31
0
0
LINE
5
325
100
AcDbEntity
8
0
100
AcDbLine
10
39.061261356844724
20
-18.349042717528903
30
0
11
41.903842628969969
21
-18.349042717528903
31
0
0
LINE
5
326
100
AcDbEntity
8
0
100
AcDbLine
10
41.903842628969969
20
-18.349042717528903
30
0
11
39.421080292239012
21
-22.906764332366549
31
0
0
LINE
5
327
100
AcDbEntity
8
0
100
AcDbLine
10
39.421080292239012
20
-22.906764332366549
30
0
11
39.421080292239012
21
-26.349042240691745
31
0
0
LINE
5
328
100
AcDbEntity
8
0
100
AcDbLine
10
39.421080292239012
20
-26.349042240691745
30
0
11
36.866358459963621
21
-26.349042240691745
31
0
0
LINE
5
329
100
AcDbEntity
8
0
100
AcDbLine
10
36.866358459963621
20
-26.349042240691745
30
0
11
36.866358459963621
21
-22.906764332366549
31
0
0
LINE
5
330
100
AcDbEntity
8
0
100
AcDbLine
10
38.305638969912351
20
-25.389521900725924
30
0
11
38.305638969912351
21
-22.522955719543063
31
0
0
LINE
5
331
100
AcDbEntity
8
0
100
AcDbLine
10
38.305638969912351
20
-22.522955719543063
30
0
11
40.056763828768553
21
-19.308563057494723
31
0
0
LINE
5
332
100
AcDbEntity
8
0
100
AcDbLine
10
40.056763828768553
20
-19.308563057494723
30
0
11
39.684950054659666
21
-19.308563057494723
31
0
0
LINE
5
333
100
AcDbEntity
8
0
100
AcDbLine
10
39.684950054659666
20
-19.308563057494723
30
0
11
38.149717987551512
21
-22.151141945434176
31
0
0
LINE
5
334
100
AcDbEntity
8
0
100
AcDbLine
10
38.149717987551512
20
-22.151141945434176
30
0
11
36.602491081728758
21
-19.308563057494723
31
0
0
LINE
5
335
100
AcDbEntity
8
0
100
AcDbLine
10
36.602491081728758
20
-19.308563057494723
30
0
11
36.24266976214868
21
-19.308563057494723
31
0
0
LINE
5
336
100
AcDbEntity
8
0
100
AcDbLine
10
36.24266976214868
20
-19.308563057494723
30
0
11
37.981799782290281
21
-22.522955719543063
31
0
0
LINE
5
337
100
AcDbEntity
8
0
100
AcDbLine
10
37.981799782290281
20
-22.522955719543063
30
0
11
37.981799782290281
21
-25.389521900725924
31
0
0
LINE
5
338
100
AcDbEntity
8
0
100
AcDbLine
10
37.981799782290281
20
-25.389521900725924
30
0
11
38.305638969912351
21
-25.389521900725924
31
0
0
LINE
5
339
100
AcDbEntity
8
0
100
AcDbLine
10
42.083753288760008
20
-18.349042717528903
30
0
11
46.797393501772703
21
-18.349042717528903
31
0
0
LINE
5
340
100
AcDbEntity
8
0
100
AcDbLine
10
46.797393501772703
20
-18.349042717528903
30
0
11
46.797393501772703
21
-20.447991673064791
31
0
0
LINE
5
341
100
AcDbEntity
8
0
100
AcDbLine
10
46.797393501772703
20
-20.447991673064791
30
0
11
44.638475121035398
21
-20.447991673064791
31
0
0
LINE
5
342
100
AcDbEntity
8
0
100
AcDbLine
10
44.638475121035398
20
-20.447991673064791
30
0
11
44.638475121035398
21
-21.335547749114596
31
0
0
LINE
5
343
100
AcDbEntity
8
0
100
AcDbLine
10
44.638475121035398
20
-21.335547749114596
30
0
11
46.761411369814695
21
-21.335547749114596
31
0
0
LINE
5
344
100
AcDbEntity
8
0
100
AcDbLine
10
46.761411369814695
20
-21.335547749114596
30
0
11
46.761411369814695
21
-23.326552692962252
31
0
0
LINE
5
345
100
AcDbEntity
8
0
100
AcDbLine
10
46.761411369814695
20
-23.326552692962252
30
0
11
44.638475121035398
21
-23.326552692962252
31
0
0
LINE
5
346
100
AcDbEntity
8
0
100
AcDbLine
10
44.638475121035398
20
-23.326552692962252
30
0
11
44.638475121035398
21
-24.250090900970065
31
0
0
LINE
5
347
100
AcDbEntity
8
0
100
AcDbLine
10
44.638475121035398
20
-24.250090900970065
30
0
11
46.881350220217527
21
-24.250090900970065
31
0
0
LINE
5
348
100
AcDbEntity
8
0
100
AcDbLine
10
46.881350220217527
20
-24.250090900970065
30
0
11
46.881350220217527
21
-26.349042240691745
31
0
0
LINE
5
349
100
AcDbEntity
8
0
100
AcDbLine
10
46.881350220217527
20
-26.349042240691745
30
0
11
42.083753288760008
21
-26.349042240691745
31
0
0
LINE
5
350
100
AcDbEntity
8
0
100
AcDbLine
10
42.083753288760008
20
-26.349042240691745
30
0
11
42.083753288760008
21
-18.349042717528903
31
0
0
LINE
5
351
100
AcDbEntity
8
0
100
AcDbLine
10
45.993794144167722
20
-25.389521900725924
30
0
11
45.993794144167722
21
-25.101664845061862
31
0
0
LINE
5
352
100
AcDbEntity
8
0
100
AcDbLine
10
45.993794144167722
20
-25.101664845061862
30
0
11
43.594993294253172
21
-25.101664845061862
31
0
0
LINE
5
353
100
AcDbEntity
8
0
100
AcDbLine
10
43.594993294253172
20
-25.101664845061862
30
0
11
43.594993294253172
21
-22.474978748870456
31
0
0
LINE
5
354
100
AcDbEntity
8
0
100
AcDbLine
10
43.594993294253172
20
-22.474978748870456
30
0
11
45.87385529376489
21
-22.474978748870456
31
0
0
LINE
5
355
100
AcDbEntity
8
0
100
AcDbLine
10
45.87385529376489
20
-22.474978748870456
30
0
11
45.87385529376489
21
-22.187124077392184
31
0
0
LINE
5
356
100
AcDbEntity
8
0
100
AcDbLine
10
45.87385529376489
20
-22.187124077392184
30
0
11
43.594993294253172
21
-22.187124077392184
31
0
0
LINE
5
357
100
AcDbEntity
8
0
100
AcDbLine
10
43.594993294253172
20
-22.187124077392184
30
0
11
43.594993294253172
21
-19.596417728972995
31
0
0
LINE
5
358
100
AcDbEntity
8
0
100
AcDbLine
10
43.594993294253172
20
-19.596417728972995
30
0
11
45.993794144167722
21
-19.596417728972995
31
0
0
LINE
5
359
100
AcDbEntity
8
0
100
AcDbLine
10
45.993794144167722
20
-19.596417728972995
30
0
11
45.993794144167722
21
-19.308563057494723
31
0
0
LINE
5
360
100
AcDbEntity
8
0
100
AcDbLine
10
45.993794144167722
20
-19.308563057494723
30
0
11
43.283151329531492
21
-19.308563057494723
31
0
0
LINE
5
361
100
AcDbEntity
8
0
100
AcDbLine
10
43.283151329531492
20
-19.308563057494723
30
0
11
43.283151329531492
21
-25.389521900725924
31
0
0
LINE
5
362
100
AcDbEntity
8
0
100
AcDbLine
10
43.283151329531492
20
-25.389521900725924
30
0
11
45.993794144167722
21
-25.389521900725924
31
0
0
SPLINE
5
363
100
AcDbEntity
8
0
100
AcDbSpline
70
0
71
2
72
6
73
3
74
0
42
0.000000001
43
0.0000000001
44
0.0000000001
40
0
40
0
40
0
40
1
40
1
40
1
10
50.095742882265867
20
-23.566432777953708
30
0
10
50.563510597719969
20
-23.566432777953708
30
0
10
51.007283867373289
20
-23.470481220794284
30
0
0
LINE
5
364
100
AcDbEntity
8
0
100
AcDbLine
10
51.007283867373289
20
-23.470481220794284
30
0
11
52.146714867129148
21
-25.389521900725924
31
0
0
LINE
5
365
100
AcDbEntity
8
0
100
AcDbLine
10
52.146714867129148
20
-25.389521900725924
30
0
11
52.518533409609617
21
-25.389521900725924
31
0
0
LINE
5
366
100
AcDbEntity
8
0
100
AcDbLine
10
52.518533409609617
20
-25.389521900725924
30
0
11
51.319130600466551
21
-23.37452966363486
31
0
0
SPLINE
5
367
100
AcDbEntity
8
0
100
AcDbSpline
70
0
71
2
72
6
73
3
74
0
42
0.000000001
43
0.0000000001
44
0.0000000001
40
0
40
0
40
0
40
1
40
1
40
1
10
51.319130600466551
20
-23.37452966363486
30
0
10
51.966804207339109
20
-23.146644417358004
30
0
10
52.350615204348387
20
-22.678876701903903
30
0
0
SPLINE
5
368
100
AcDbEntity
8
0
100
AcDbSpline
70
0
71
2
72
6
73
3
74
0
42
0.000000001
43
0.0000000001
44
0.0000000001
40
0
40
0
40
0
40
1
40
1
40
1
10
52.350615204348387
20
-22.678876701903903
30
0
10
52.734421432986082
20
-22.199116531920993
30
0
10
52.734421432986082
20
-21.44349414498862
30
0
0
SPLINE
5
369
100
AcDbEntity
8
0
100
AcDbSpline
70
0
71
2
72
6
73
3
74
0
42
0.000000001
43
0.0000000001
44
0.0000000001
40
0
40
0
40
0
40
1
40
1
40
1
10
52.734421432986082
20
-21.44349414498862
30
0
10
52.734421432986082
20
-20.915759388518893
30
0
10
52.530525864138426
20
-20.519955936980807
30
0
0
SPLINE
5
370
100
AcDbEntity
8
0
100
AcDbSpline
70
0
71
2
72
6
73
3
74
0
42
0.000000001
43
0.0000000001
44
0.0000000001
40
0
40
0
40
0
40
1
40
1
40
1
10
52.530525864138426
20
-20.519955936980807
30
0
10
52.326625526919187
20
-20.124154869628512
30
0
10
51.966804207339109
20
-19.860287491393649
30
0
0
SPLINE
5
371
100
AcDbEntity
8
0
100
AcDbSpline
70
0
71
2
72
6
73
3
74
0
42
0.000000001
43
0.0000000001
44
0.0000000001
40
0
40
0
40
0
40
1
40
1
40
1
10
51.966804207339109
20
-19.860287491393649
30
0
10
51.618980110659422
20
-19.584425274444186
30
0
10
51.139219940676512
20
-19.452489201140963
30
0
0
SPLINE
5
372
100
AcDbEntity
8
0
100
AcDbSpline
70
0
71
2
72
6
73
3
74
0
42
0.000000001
43
0.0000000001
44
0.0000000001
40
0
40
0
40
0
40
1
40
1
40
1
10
51.139219940676512
20
-19.452489201140963
30
0
10
50.659459770693601
20
-19.308563057494723
30
0
10
50.095742882265867
20
-19.308563057494723
30
0
0
LINE
5
373
100
AcDbEntity
8
0
100
AcDbLine
10
50.095742882265867
20
-19.308563057494723
30
0
11
48.800390900149168
21
-19.308563057494723
31
0
0
LINE
5
374
100
AcDbEntity
8
0
100
AcDbLine
10
48.800390900149168
20
-19.308563057494723
30
0
11
48.800390900149168
21
-25.389521900725924
31
0
0
LINE
5
375
100
AcDbEntity
8
0
100
AcDbLine
10
48.800390900149168
20
-25.389521900725924
30
0
11
49.112232864870847
21
-25.389521900725924
31
0
0
LINE
5
376
100
AcDbEntity
8
0
100
AcDbLine
10
49.112232864870847
20
-25.389521900725924
30
0
11
49.112232864870847
21
-23.566432777953708
31
0
0
LINE
5
377
100
AcDbEntity
8
0
100
AcDbLine
10
49.112232864870847
20
-23.566432777953708
30
0
11
50.095742882265867
21
-23.566432777953708
31
0
0
LINE
5
378
100
AcDbEntity
8
0
100
AcDbLine
10
49.112232864870847
20
-23.278578106475436
30
0
11
49.112232864870847
21
-19.596417728972995
31
0
0
LINE
5
379
100
AcDbEntity
8
0
100
AcDbLine
10
49.112232864870847
20
-19.596417728972995
30
0
11
50.095742882265867
21
-19.596417728972995
31
0
0
SPLINE
5
380
100
AcDbEntity
8
0
100
AcDbSpline
70
0
71
2
72
6
73
3
74
0
42
0.000000001
43
0.0000000001
44
0.0000000001
40
0
40
0
40
0
40
1
40
1
40
1
10
50.095742882265867
20
-19.596417728972995
30
0
10
51.187194527163328
20
-19.596417728972995
30
0
10
51.798890770449461
20
-20.076177898955905
30
0
0
SPLINE
5
381
100
AcDbEntity
8
0
100
AcDbSpline
70
0
71
2
72
6
73
3
74
0
42
0.000000001
43
0.0000000001
44
0.0000000001
40
0
40
0
40
0
40
1
40
1
40
1
10
51.798890770449461
20
-20.076177898955905
30
0
10
52.422579468264402
20
-20.555938068938815
30
0
10
52.422579468264402
20
-21.44349414498862
30
0
0
SPLINE
5
382
100
AcDbEntity
8
0
100
AcDbSpline
70
0
71
2
72
6
73
3
74
0
42
0.000000001
43
0.0000000001
44
0.0000000001
40
0
40
0
40
0
40
1
40
1
40
1
10
52.422579468264402
20
-21.44349414498862
30
0
10
52.422579468264402
20
-22.331050221038424
30
0
10
51.798890770449461
20
-22.810810391021334
30
0
0
SPLINE
5
383
100
AcDbEntity
8
0
100
AcDbSpline
70
0
71
2
72
6
73
3
74
0
42
0.000000001
43
0.0000000001
44
0.0000000001
40
0
40
0
40
0
40
1
40
1
40
1
10
51.798890770449461
20
-22.810810391021334
30
0
10
51.187194527163328
20
-23.278578106475436
30
0
10
50.095742882265867
20
-23.278578106475436
30
0
0
LINE
5
384
100
AcDbEntity
8
0
100
AcDbLine
10
50.095742882265867
20
-23.278578106475436
30
0
11
49.112232864870847
21
-23.278578106475436
31
0
0
LINE
5
385
100
AcDbEntity
8
0
100
AcDbLine
10
47.600988091006101
20
-18.349042717528903
30
0
11
50.35961026050073
21
-18.349042717528903
31
0
0
SPLINE
5
386
100
AcDbEntity
8
0
100
AcDbSpline
70
0
71
2
72
6
73
3
74
0
42
0.000000001
43
0.0000000001
44
0.0000000001
40
0
40
0
40
0
40
1
40
1
40
1
10
50.35961026050073
20
-18.349042717528903
30
0
10
51.127227486147703
20
-18.349042717528903
30
0
10
51.774905861391844
20
-18.55294067056235
30
0
0
SPLINE
5
387
100
AcDbEntity
8
0
100
AcDbSpline
70
0
71
2
72
6
73
3
74
0
42
0.000000001
43
0.0000000001
44
0.0000000001
40
0
40
0
40
0
40
1
40
1
40
1
10
51.774905861391844
20
-18.55294067056235
30
0
10
52.434571922793211
20
-18.756838623595797
30
0
10
52.914332092776121
20
-19.152639690948092
30
0
0
SPLINE
5
388
100
AcDbEntity
8
0
100
AcDbSpline
70
0
71
2
72
6
73
3
74
0
42
0.000000001
43
0.0000000001
44
0.0000000001
40
0
40
0
40
0
40
1
40
1
40
1
10
52.914332092776121
20
-19.152639690948092
30
0
10
53.394092262759031
20
-19.548443142486178
30
0
10
53.657959640993894
20
-20.136149708343112
30
0
0
SPLINE
5
389
100
AcDbEntity
8
0
100
AcDbSpline
70
0
71
2
72
6
73
3
74
0
42
0.000000001
43
0.0000000001
44
0.0000000001
40
0
40
0
40
0
40
1
40
1
40
1
10
53.657959640993894
20
-20.136149708343112
30
0
10
53.933824242129148
20
-20.711861435485446
30
0
10
53.933824242129148
20
-21.467483822417819
30
0
0
SPLINE
5
390
100
AcDbEntity
8
0
100
AcDbSpline
70
0
71
2
72
6
73
3
74
0
42
0.000000001
43
0.0000000001
44
0.0000000001
40
0
40
0
40
0
40
1
40
1
40
1
10
53.933824242129148
20
-21.467483822417819
30
0
10
53.933824242129148
20
-22.067182842803561
30
0
10
53.765906036867918
20
-22.486973587585055
30
0
0
SPLINE
5
391
100
AcDbEntity
8
0
100
AcDbSpline
70
0
71
2
72
6
73
3
74
0
42
0.000000001
43
0.0000000001
44
0.0000000001
40
0
40
0
40
0
40
1
40
1
40
1
10
53.765906036867918
20
-22.486973587585055
30
0
10
53.597987831606687
20
-22.906764332366549
30
0
10
53.394092262759031
20
-23.182624165130221
30
0
0
SPLINE
5
392
100
AcDbEntity
8
0
100
AcDbSpline
70
0
71
2
72
6
73
3
74
0
42
0.000000001
43
0.0000000001
44
0.0000000001
40
0
40
0
40
0
40
1
40
1
40
1
10
53.394092262759031
20
-23.182624165130221
30
0
10
53.154214561953367
20
-23.494470898223483
30
0
10
52.854360283388914
20
-23.710361305785739
30
0
0
LINE
5
393
100
AcDbEntity
8
0
100
AcDbLine
10
52.854360283388914
20
-23.710361305785739
30
0
11
54.353612602724851
21
-26.349042240691745
31
0
0
LINE
5
394
100
AcDbEntity
8
0
100
AcDbLine
10
54.353612602724851
20
-26.349042240691745
30
0
11
51.355112732424558
21
-26.349042240691745
31
0
0
LINE
5
395
100
AcDbEntity
8
0
100
AcDbLine
10
51.355112732424558
20
-26.349042240691745
30
0
11
50.155709923281492
21
-24.322055164886081
31
0
0
LINE
5
396
100
AcDbEntity
8
0
100
AcDbLine
10
50.155709923281492
20
-24.322055164886081
30
0
11
50.155709923281492
21
-26.349042240691745
31
0
0
LINE
5
397
100
AcDbEntity
8
0
100
AcDbLine
10
50.155709923281492
20
-26.349042240691745
30
0
11
47.600988091006101
21
-26.349042240691745
31
0
0
LINE
5
398
100
AcDbEntity
8
0
100
AcDbLine
10
47.600988091006101
20
-26.349042240691745
30
0
11
47.600988091006101
21
-18.349042717528903
31
0
0
LINE
5
399
100
AcDbEntity
8
0
100
AcDbLine
10
50.155709923281492
20
-22.283075634551608
30
0
11
50.287645996584715
21
-22.283075634551608
31
0
0
SPLINE
5
400
100
AcDbEntity
8
0
100
AcDbSpline
70
0
71
2
72
6
73
3
74
0
42
0.000000001
43
0.0000000001
44
0.0000000001
40
0
40
0
40
0
40
1
40
1
40
1
10
50.287645996584715
20
-22.283075634551608
30
0
10
50.743421257510008
20
-22.283075634551608
30
0
10
51.055263222231687
20
-22.079177681518161
30
0
0
SPLINE
5
401
100
AcDbEntity
8
0
100
AcDbSpline
70
0
71
2
72
6
73
3
74
0
42
0.000000001
43
0.0000000001
44
0.0000000001
40
0
40
0
40
0
40
1
40
1
40
1
10
51.055263222231687
20
-22.079177681518161
30
0
10
51.379102409853758
20
-21.875279728484713
30
0
10
51.379102409853758
20
-21.395519558501803
30
0
0
SPLINE
5
402
100
AcDbEntity
8
0
100
AcDbSpline
70
0
71
2
72
6
73
3
74
0
42
0.000000001
43
0.0000000001
44
0.0000000001
40
0
40
0
40
0
40
1
40
1
40
1
10
51.379102409853758
20
-21.395519558501803
30
0
10
51.379102409853758
20
-20.915759388518893
30
0
10
51.055263222231687
20
-20.711861435485446
30
0
0
SPLINE
5
403
100
AcDbEntity
8
0
100
AcDbSpline
70
0
71
2
72
6
73
3
74
0
42
0.000000001
43
0.0000000001
44
0.0000000001
40
0
40
0
40
0
40
1
40
1
40
1
10
51.055263222231687
20
-20.711861435485446
30
0
10
50.743421257510008
20
-20.507963482451999
30
0
10
50.287645996584715
20
-20.507963482451999
30
0
0
LINE
5
404
100
AcDbEntity
8
0
100
AcDbLine
10
50.287645996584715
20
-20.507963482451999
30
0
11
50.155709923281492
21
-20.507963482451999
31
0
0
LINE
5
405
100
AcDbEntity
8
0
100
AcDbLine
10
50.155709923281492
20
-20.507963482451999
30
0
11
50.155709923281492
21
-22.283075634551608
31
0
0
LINE
5
406
100
AcDbEntity
8
0
100
AcDbLine
10
57.352112473025144
20
-21.467483822417819
30
0
11
56.27264851428491
21
-20.208113972259127
31
0
0
LINE
5
407
100
AcDbEntity
8
0
100
AcDbLine
10
56.27264851428491
20
-20.208113972259127
30
0
11
58.023775757326902
21
-18.349042717528903
31
0
0
LINE
5
408
100
AcDbEntity
8
0
100
AcDbLine
10
58.023775757326902
20
-18.349042717528903
30
0
11
59.942816437258543
21
-18.349042717528903
31
0
0
LINE
5
409
100
AcDbEntity
8
0
100
AcDbLine
10
59.942816437258543
20
-18.349042717528903
30
0
11
59.942816437258543
21
-26.349042240691745
31
0
0
LINE
5
410
100
AcDbEntity
8
0
100
AcDbLine
10
59.942816437258543
20
-26.349042240691745
30
0
11
57.352112473025144
21
-26.349042240691745
31
0
0
LINE
5
411
100
AcDbEntity
8
0
100
AcDbLine
10
57.352112473025144
20
-26.349042240691745
30
0
11
57.352112473025144
21
-21.467483822417819
31
0
0
LINE
5
412
100
AcDbEntity
8
0
100
AcDbLine
10
58.779395760073484
20
-25.389521900725924
30
0
11
58.779395760073484
21
-19.308563057494723
31
0
0
LINE
5
413
100
AcDbEntity
8
0
100
AcDbLine
10
58.779395760073484
20
-19.308563057494723
30
0
11
58.443564117922605
21
-19.308563057494723
31
0
0
LINE
5
414
100
AcDbEntity
8
0
100
AcDbLine
10
58.443564117922605
20
-19.308563057494723
30
0
11
57.520025909914793
21
-20.292070690703952
31
0
0
LINE
5
415
100
AcDbEntity
8
0
100
AcDbLine
10
57.520025909914793
20
-20.292070690703952
30
0
11
57.699936569704832
21
-20.495968643737399
31
0
0
LINE
5
416
100
AcDbEntity
8
0
100
AcDbLine
10
57.699936569704832
20
-20.495968643737399
30
0
11
58.467553795351805
21
-19.716358963561618
31
0
0
LINE
5
417
100
AcDbEntity
8
0
100
AcDbLine
10
58.467553795351805
20
-19.716358963561618
30
0
11
58.467553795351805
21
-25.389521900725924
31
0
0
LINE
5
418
100
AcDbEntity
8
0
100
AcDbLine
10
58.467553795351805
20
-25.389521900725924
30
0
11
58.779395760073484
21
-25.389521900725924
31
0
0
ENDSEC
0
SECTION
2
OBJECTS
0
DICTIONARY
5
C
100
AcDbDictionary
3
ACAD_GROUP
350
D
3
ACAD_MLINESTYLE
350
17
0
DICTIONARY
5
D
100
AcDbDictionary
0
DICTIONARY
5
1A
330
C
100
AcDbDictionary
0
DICTIONARY
5
17
100
AcDbDictionary
0
ENDSEC
0
EOF
