0
SECTION
2
HEADER
9
$INSUNITS
70
4
9
$ACADVER
1
AC1014
9
$HANDSEED
5
FFFF
0
ENDSEC
0
SECTION
2
TABLES
0
TABLE
2
VPORT
5
8
100
AcDbSymbolTable
0
ENDTAB
0
TABLE
2
LTYPE
5
5
100
AcDbSymbolTable
0
LTYPE
5
14
100
AcDbSymbolTableRecord
100
AcDbLinetypeTableRecord
2
BYBLOCK
70
0
0
LTYPE
5
15
100
AcDbSymbolTableRecord
100
AcDbLinetypeTableRecord
2
BYLAYER
70
0
0
ENDTAB
0
TABLE
2
LAYER
5
2
100
AcDbSymbolTable
70
2
0
LAYER
5
50
100
AcDbSymbolTableRecord
100
AcDbLayerTableRecord
2
0
70
0
6
CONTINUOUS
0
ENDTAB
0
TABLE
2
STYLE
5
3
100
AcDbSymbolTable
70
1
0
STYLE
5
11
100
AcDbSymbolTableRecord
100
AcDbTextStyleTableRecord
2
STANDARD
70
0
0
ENDTAB
0
TABLE
2
VIEW
5
6
100
AcDbSymbolTable
70
0
0
ENDTAB
0
TABLE
2
UCS
5
7
100
AcDbSymbolTable
70
0
0
ENDTAB
0
TABLE
2
APPID
5
9
100
AcDbSymbolTable
70
2
0
APPID
5
12
100
AcDbSymbolTableRecord
100
AcDbRegAppTableRecord
2
ACAD
70
0
0
ENDTAB
0
TABLE
2
DIMSTYLE
5
A
100
AcDbSymbolTable
70
1
0
ENDTAB
0
TABLE
2
BLOCK_RECORD
5
1
100
AcDbSymbolTable
70
1
0
BLOCK_RECORD
5
1F
100
AcDbSymbolTableRecord
100
AcDbBlockTableRecord
2
*MODEL_SPACE
0
BLOCK_RECORD
5
1B
100
AcDbSymbolTableRecord
100
AcDbBlockTableRecord
2
*PAPER_SPACE
0
ENDTAB
0
ENDSEC
0
SECTION
2
BLOCKS
0
BLOCK
5
20
100
AcDbEntity
100
AcDbBlockBegin
2
*MODEL_SPACE
0
ENDBLK
5
21
100
AcDbEntity
100
AcDbBlockEnd
0
BLOCK
5
1C
100
AcDbEntity
100
AcDbBlockBegin
2
*PAPER_SPACE
0
ENDBLK
5
1D
100
AcDbEntity
100
AcDbBlockEnd
0
ENDSEC
0
SECTION
2
ENTITIES
0
LWPOLYLINE
5
100
100
AcDbEntity
8
0
100
AcDbPolyline
90
4
70
1
43
0.0
10
100.02782688234346
20
-29.918289234529869
10
175.02782688234348
20
-29.918289234529869
10
175.02782688234348
20
0.081710765470131008
10
100.02782688234346
20
0.081710765470131008
0
LWPOLYLINE
5
101
100
AcDbEntity
8
0
100
AcDbPolyline
90
4
70
1
43
0.0
10
101.65960167143177
20
-28.757900000311452
10
173.82077561979912
20
-28.757900000311452
10
173.82077561979912
20
-1.2624044604994644
10
101.65960167143177
20
-1.2624044604994644
0
LINE
5
102
100
AcDbEntity
8
0
100
AcDbLine
10
125.19446291569304
20
-3.8137502856947805
30
0
11
127.29341187122893
21
-3.8137502856947805
31
0
0
LINE
5
103
100
AcDbEntity
8
0
100
AcDbLine
10
127.29341187122893
20
-3.8137502856947805
30
0
11
129.50030960682463
21
-6.8962092586256869
31
0
0
LINE
5
104
100
AcDbEntity
8
0
100
AcDbLine
10
129.50030960682463
20
-6.8962092586256887
30
0
11
129.50030960682463
21
-3.8137502856947809
31
0
0
LINE
5
105
100
AcDbEntity
8
0
100
AcDbLine
10
129.50030960682463
20
-3.8137502856947805
30
0
11
132.0070568526132
21
-3.8137502856947805
31
0
0
LINE
5
106
100
AcDbEntity
8
0
100
AcDbLine
10
132.0070568526132
20
-3.8137502856947805
30
0
11
132.0070568526132
21
-11.813750404904068
31
0
0
LINE
5
107
100
AcDbEntity
8
0
100
AcDbLine
10
132.0070568526132
20
-11.813750404904068
30
0
11
129.89611305836272
21
-11.813750404904068
31
0
0
LINE
5
108
100
AcDbEntity
8
0
100
AcDbLine
10
129.89611305836272
20
-11.813750404904068
30
0
11
127.70120777729582
21
-8.7432850785948641
31
0
0
LINE
5
109
100
AcDbEntity
8
0
100
AcDbLine
10
127.70120777729582
20
-8.7432850785948641
30
0
11
127.70120777729582
21
-11.813750404904068
31
0
0
LINE
5
110
100
AcDbEntity
8
0
100
AcDbLine
10
127.70120777729582
20
-11.813750404904068
30
0
11
125.19446291569304
21
-11.813750404904068
31
0
0
LINE
5
111
100
AcDbEntity
8
0
100
AcDbLine
10
125.19446291569304
20
-11.813750404904068
30
0
11
125.19446291569304
21
-3.8137502856947805
31
0
0
LINE
5
112
100
AcDbEntity
8
0
100
AcDbLine
10
126.62174858692717
20
-10.854230064938248
30
0
11
126.62174858692717
21
-5.3130008168913747
31
0
0
LINE
5
113
100
AcDbEntity
8
0
100
AcDbLine
10
126.62174858692717
20
-5.3130008168913747
30
0
11
130.57976879719328
21
-10.854230064938248
31
0
0
LINE
5
114
100
AcDbEntity
8
0
100
AcDbLine
10
130.57976879719328
20
-10.854230064938248
30
0
11
130.89161314610075
21
-10.854230064938248
31
0
0
LINE
5
115
100
AcDbEntity
8
0
100
AcDbLine
10
130.89161314610075
20
-10.854230064938248
30
0
11
130.89161314610075
21
-4.7732706256606008
31
0
0
LINE
5
116
100
AcDbEntity
8
0
100
AcDbLine
10
130.89161314610075
20
-4.7732706256606008
30
0
11
130.57976879719328
21
-4.7732706256606008
31
0
0
LINE
5
117
100
AcDbEntity
8
0
100
AcDbLine
10
130.57976879719328
20
-4.7732706256606008
30
0
11
130.57976879719328
21
-10.314500469753922
31
0
0
LINE
5
118
100
AcDbEntity
8
0
100
AcDbLine
10
130.57976879719328
20
-10.314500469753922
30
0
11
126.62174858692717
21
-4.7732706256606008
31
0
0
LINE
5
119
100
AcDbEntity
8
0
100
AcDbLine
10
126.62174858692717
20
-4.7732706256606008
30
0
11
126.3099042380197
21
-4.7732706256606008
31
0
0
LINE
5
120
100
AcDbEntity
8
0
100
AcDbLine
10
126.3099042380197
20
-4.7732706256606008
30
0
11
126.3099042380197
21
-10.854230064938248
31
0
0
LINE
5
121
100
AcDbEntity
8
0
100
AcDbLine
10
126.3099042380197
20
-10.854230064938248
30
0
11
126.62174858692717
21
-10.854230064938248
31
0
0
LINE
5
122
100
AcDbEntity
8
0
100
AcDbLine
10
132.8466359579904
20
-3.8137502856947805
30
0
11
137.56027855518889
21
-3.8137502856947805
31
0
0
LINE
5
123
100
AcDbEntity
8
0
100
AcDbLine
10
137.56027855518889
20
-3.8137502856947805
30
0
11
137.56027855518889
21
-5.9127010293700124
31
0
0
LINE
5
124
100
AcDbEntity
8
0
100
AcDbLine
10
137.56027855518889
20
-5.9127010293700124
30
0
11
135.40136017445158
21
-5.9127010293700124
31
0
0
LINE
5
125
100
AcDbEntity
8
0
100
AcDbLine
10
135.40136017445158
20
-5.9127010293700124
30
0
11
135.40136017445158
21
-6.8002571054198171
31
0
0
LINE
5
126
100
AcDbEntity
8
0
100
AcDbLine
10
135.40136017445158
20
-6.8002571054198171
30
0
11
137.52429642323088
21
-6.8002571054198171
31
0
0
LINE
5
127
100
AcDbEntity
8
0
100
AcDbLine
10
137.52429642323088
20
-6.8002571054198171
30
0
11
137.52429642323088
21
-8.7912620492674733
31
0
0
LINE
5
128
100
AcDbEntity
8
0
100
AcDbLine
10
137.52429642323088
20
-8.7912620492674716
30
0
11
135.40136017445158
21
-8.7912620492674716
31
0
0
LINE
5
129
100
AcDbEntity
8
0
100
AcDbLine
10
135.40136017445158
20
-8.7912620492674716
30
0
11
135.40136017445158
21
-9.7148002572752841
31
0
0
LINE
5
130
100
AcDbEntity
8
0
100
AcDbLine
10
135.40136017445158
20
-9.7148002572752841
30
0
11
137.6442376578195
21
-9.7148002572752841
31
0
0
LINE
5
131
100
AcDbEntity
8
0
100
AcDbLine
10
137.6442376578195
20
-9.7148002572752841
30
0
11
137.6442376578195
21
-11.813750404904068
31
0
0
LINE
5
132
100
AcDbEntity
8
0
100
AcDbLine
10
137.6442376578195
20
-11.813750404904068
30
0
11
132.8466359579904
21
-11.813750404904068
31
0
0
LINE
5
133
100
AcDbEntity
8
0
100
AcDbLine
10
132.8466359579904
20
-11.813750404904068
30
0
11
132.8466359579904
21
-3.8137502856947805
31
0
0
LINE
5
134
100
AcDbEntity
8
0
100
AcDbLine
10
136.7566815817697
20
-10.854230064938248
30
0
11
136.7566815817697
21
-10.566374201367081
31
0
0
LINE
5
135
100
AcDbEntity
8
0
100
AcDbLine
10
136.7566815817697
20
-10.566374201367081
30
0
11
134.35788073185515
21
-10.566374201367081
31
0
0
LINE
5
136
100
AcDbEntity
8
0
100
AcDbLine
10
134.35788073185515
20
-10.566374201367081
30
0
11
134.35788073185515
21
-7.9396875091292269
31
0
0
LINE
5
137
100
AcDbEntity
8
0
100
AcDbLine
10
134.35788073185515
20
-7.9396875091292287
30
0
11
136.63674034718107
21
-7.9396875091292287
31
0
0
LINE
5
138
100
AcDbEntity
8
0
100
AcDbLine
10
136.63674034718107
20
-7.9396875091292287
30
0
11
136.63674034718107
21
-7.651831049511614
31
0
0
LINE
5
139
100
AcDbEntity
8
0
100
AcDbLine
10
136.63674034718107
20
-7.651831049511614
30
0
11
134.35788073185515
21
-7.651831049511614
31
0
0
LINE
5
140
100
AcDbEntity
8
0
100
AcDbLine
10
134.35788073185515
20
-7.651831049511614
30
0
11
134.35788073185515
21
-5.0611270852782164
31
0
0
LINE
5
141
100
AcDbEntity
8
0
100
AcDbLine
10
134.35788073185515
20
-5.0611270852782155
30
0
11
136.7566815817697
21
-5.0611270852782155
31
0
0
LINE
5
142
100
AcDbEntity
8
0
100
AcDbLine
10
136.7566815817697
20
-5.0611270852782155
30
0
11
136.7566815817697
21
-4.7732706256606008
31
0
0
LINE
5
143
100
AcDbEntity
8
0
100
AcDbLine
10
136.7566815817697
20
-4.7732706256606008
30
0
11
134.04603638294768
21
-4.7732706256606008
31
0
0
LINE
5
144
100
AcDbEntity
8
0
100
AcDbLine
10
134.04603638294768
20
-4.7732706256606008
30
0
11
134.04603638294768
21
-10.854230064938248
31
0
0
LINE
5
145
100
AcDbEntity
8
0
100
AcDbLine
10
134.04603638294768
20
-10.854230064938248
30
0
11
136.7566815817697
21
-10.854230064938248
31
0
0
LINE
5
146
100
AcDbEntity
8
0
100
AcDbLine
10
141.37437500599455
20
-7.9996575303770907
30
0
11
142.94558682087492
21
-10.854230064938248
31
0
0
LINE
5
147
100
AcDbEntity
8
0
100
AcDbLine
10
142.94558682087492
20
-10.854230064938248
30
0
11
143.30540337208342
21
-10.854230064938248
31
0
0
LINE
5
148
100
AcDbEntity
8
0
100
AcDbLine
10
143.30540337208342
20
-10.854230064938248
30
0
11
141.55428089741301
21
-7.6758195348479159
31
0
0
LINE
5
149
100
AcDbEntity
8
0
100
AcDbLine
10
141.55428089741301
20
-7.6758195348479177
30
0
11
143.14948715809416
21
-4.7732706256606008
31
0
0
LINE
5
150
100
AcDbEntity
8
0
100
AcDbLine
10
143.14948715809416
20
-4.7732706256606008
30
0
11
142.78966583851408
21
-4.7732706256606008
31
0
0
LINE
5
151
100
AcDbEntity
8
0
100
AcDbLine
10
142.78966583851408
20
-4.7732706256606008
30
0
11
141.37437500599455
21
-7.3519815393187411
31
0
0
LINE
5
152
100
AcDbEntity
8
0
100
AcDbLine
10
141.37437500599455
20
-7.3519815393187429
30
0
11
139.95907940510344
21
-4.7732706256606008
31
0
0
LINE
5
153
100
AcDbEntity
8
0
100
AcDbLine
10
139.95907940510344
20
-4.7732706256606008
30
0
11
139.59925808552336
21
-4.7732706256606008
31
0
0
LINE
5
154
100
AcDbEntity
8
0
100
AcDbLine
10
139.59925808552336
20
-4.7732706256606008
30
0
11
141.19446196201872
21
-7.6758195348479159
31
0
0
LINE
5
155
100
AcDbEntity
8
0
100
AcDbLine
10
141.19446196201872
20
-7.6758195348479177
30
0
11
139.44333710316252
21
-10.854230064938248
31
0
0
LINE
5
156
100
AcDbEntity
8
0
100
AcDbLine
10
139.44333710316252
20
-10.854230064938248
30
0
11
139.8031584227426
21
-10.854230064938248
31
0
0
LINE
5
157
100
AcDbEntity
8
0
100
AcDbLine
10
139.8031584227426
20
-10.854230064938248
30
0
11
141.37437500599455
21
-7.9996575303770907
31
0
0
LINE
5
158
100
AcDbEntity
8
0
100
AcDbLine
10
139.98306908253264
20
-7.6758195348479177
30
0
11
137.86012806538176
21
-3.8137502856947809
31
0
0
LINE
5
159
100
AcDbEntity
8
0
100
AcDbLine
10
137.86012806538176
20
-3.8137502856947805
30
0
11
140.65473236683439
21
-3.8137502856947805
31
0
0
LINE
5
160
100
AcDbEntity
8
0
100
AcDbLine
10
140.65473236683439
20
-3.8137502856947805
30
0
11
141.37437500599455
21
-5.1210971065260793
31
0
0
LINE
5
161
100
AcDbEntity
8
0
100
AcDbLine
10
141.37437500599455
20
-5.1210971065260793
30
0
11
142.09401287678313
21
-3.8137502856947805
31
0
0
LINE
5
162
100
AcDbEntity
8
0
100
AcDbLine
10
142.09401287678313
20
-3.8137502856947805
30
0
11
144.90060963276457
21
-3.8137502856947805
31
0
0
LINE
5
163
100
AcDbEntity
8
0
100
AcDbLine
10
144.90060963276457
20
-3.8137502856947805
30
0
11
142.77766861561369
21
-7.6758195348479159
31
0
0
LINE
5
164
100
AcDbEntity
8
0
100
AcDbLine
10
142.77766861561369
20
-7.6758195348479177
30
0
11
145.05653061512541
21
-11.813750404904068
31
0
0
LINE
5
165
100
AcDbEntity
8
0
100
AcDbLine
10
145.05653061512541
20
-11.813750404904068
30
0
11
142.26193108204436
21
-11.813750404904068
31
0
0
LINE
5
166
100
AcDbEntity
8
0
100
AcDbLine
10
142.26193108204436
20
-11.813750404904068
30
0
11
141.37437500599455
21
-10.218547720501602
31
0
0
LINE
5
167
100
AcDbEntity
8
0
100
AcDbLine
10
141.37437500599455
20
-10.218547720501602
30
0
11
140.49881138447356
21
-11.813750404904068
31
0
0
LINE
5
168
100
AcDbEntity
8
0
100
AcDbLine
10
140.49881138447356
20
-11.813750404904068
30
0
11
137.70420708302092
21
-11.813750404904068
31
0
0
LINE
5
169
100
AcDbEntity
8
0
100
AcDbLine
10
137.70420708302092
20
-11.813750404904068
30
0
11
139.98306908253264
21
-7.6758195348479159
31
0
0
LINE
5
170
100
AcDbEntity
8
0
100
AcDbLine
10
146.2919107878549
20
-5.9127010293700124
30
0
11
144.81665291431975
21
-5.9127010293700124
31
0
0
LINE
5
171
100
AcDbEntity
8
0
100
AcDbLine
10
144.81665291431975
20
-5.9127010293700124
30
0
11
144.81665291431975
21
-3.8137502856947805
31
0
0
LINE
5
172
100
AcDbEntity
8
0
100
AcDbLine
10
144.81665291431975
20
-3.8137502856947805
30
0
11
150.40585674885344
21
-3.8137502856947805
31
0
0
LINE
5
173
100
AcDbEntity
8
0
100
AcDbLine
10
150.40585674885344
20
-3.8137502856947805
30
0
11
150.40585674885344
21
-5.9127010293700124
31
0
0
LINE
5
174
100
AcDbEntity
8
0
100
AcDbLine
10
150.40585674885344
20
-5.9127010293700124
30
0
11
148.9305941069467
21
-5.9127010293700124
31
0
0
LINE
5
175
100
AcDbEntity
8
0
100
AcDbLine
10
148.9305941069467
20
-5.9127010293700124
30
0
11
148.9305941069467
21
-11.813750404904068
31
0
0
LINE
5
176
100
AcDbEntity
8
0
100
AcDbLine
10
148.9305941069467
20
-11.813750404904068
30
0
11
146.2919107878549
21
-11.813750404904068
31
0
0
LINE
5
177
100
AcDbEntity
8
0
100
AcDbLine
10
146.2919107878549
20
-11.813750404904068
30
0
11
146.2919107878549
21
-5.9127010293700124
31
0
0
LINE
5
178
100
AcDbEntity
8
0
100
AcDbLine
10
147.76717819813322
20
-10.854230064938248
30
0
11
147.76717819813322
21
-5.0611270852782155
31
0
0
LINE
5
179
100
AcDbEntity
8
0
100
AcDbLine
10
147.76717819813322
20
-5.0611270852782155
30
0
11
149.48231854084563
21
-5.0611270852782155
31
0
0
LINE
5
180
100
AcDbEntity
8
0
100
AcDbLine
10
149.48231854084563
20
-5.0611270852782155
30
0
11
149.48231854084563
21
-4.7732706256606008
31
0
0
LINE
5
181
100
AcDbEntity
8
0
100
AcDbLine
10
149.48231854084563
20
-4.7732706256606008
30
0
11
145.74019112232756
21
-4.7732706256606008
31
0
0
LINE
5
182
100
AcDbEntity
8
0
100
AcDbLine
10
145.74019112232756
20
-4.7732706256606008
30
0
11
145.74019112232756
21
-5.0611270852782155
31
0
0
LINE
5
183
100
AcDbEntity
8
0
100
AcDbLine
10
145.74019112232756
20
-5.0611270852782155
30
0
11
147.45533146503996
21
-5.0611270852782155
31
0
0
LINE
5
184
100
AcDbEntity
8
0
100
AcDbLine
10
147.45533146503996
20
-5.0611270852782155
30
0
11
147.45533146503996
21
-10.854230064938248
31
0
0
LINE
5
185
100
AcDbEntity
8
0
100
AcDbLine
10
147.45533146503996
20
-10.854230064938248
30
0
11
147.76717819813322
21
-10.854230064938248
31
0
0
SPLINE
5
186
100
AcDbEntity
8
0
100
AcDbSpline
70
0
71
2
72
6
73
3
74
0
42
0.000000001
43
0.0000000001
44
0.0000000001
40
0
40
0
40
0
40
1
40
1
40
1
10
120.87062515858244
20
-21.253031630108534
30
0
10
120.87062515858244
20
-22.080618280956923
30
0
10
120.58276810291838
20
-22.668322462628065
30
0
0
SPLINE
5
187
100
AcDbEntity
8
0
100
AcDbSpline
70
0
71
2
72
6
73
3
74
0
42
0.000000001
43
0.0000000001
44
0.0000000001
40
0
40
0
40
0
40
1
40
1
40
1
10
120.58276810291838
20
-22.668322462628065
30
0
10
120.29491343144011
20
-23.24403657395619
30
0
10
119.79116477612089
20
-23.603855509350478
30
0
0
SPLINE
5
188
100
AcDbEntity
8
0
100
AcDbSpline
70
0
71
2
72
6
73
3
74
0
42
0.000000001
43
0.0000000001
44
0.0000000001
40
0
40
0
40
0
40
1
40
1
40
1
10
119.79116477612089
20
-23.603855509350478
30
0
10
119.29941095951628
20
-23.963676828930556
30
0
10
118.62774648312163
20
-24.131592650005995
30
0
0
SPLINE
5
189
100
AcDbEntity
8
0
100
AcDbSpline
70
0
71
2
72
6
73
3
74
0
42
0.000000001
43
0.0000000001
44
0.0000000001
40
0
40
0
40
0
40
1
40
1
40
1
10
118.62774648312163
20
-24.131592650005995
30
0
10
117.96807565334868
20
-24.299508471081435
30
0
10
117.2004596197946
20
-24.299508471081435
30
0
0
LINE
5
190
100
AcDbEntity
8
0
100
AcDbLine
10
117.2004596197946
20
-24.299508471081435
30
0
11
117.2004596197946
21
-26.206554312298476
31
0
0
LINE
5
191
100
AcDbEntity
8
0
100
AcDbLine
10
117.2004596197946
20
-26.206554312298476
30
0
11
114.64573659542631
21
-26.206554312298476
31
0
0
LINE
5
192
100
AcDbEntity
8
0
100
AcDbLine
10
114.64573659542631
20
-26.206554312298476
30
0
11
114.64573659542631
21
-18.206554789135634
31
0
0
LINE
5
193
100
AcDbEntity
8
0
100
AcDbLine
10
114.64573659542631
20
-18.206554789135634
30
0
11
117.2004596197946
21
-18.206554789135634
31
0
0
SPLINE
5
194
100
AcDbEntity
8
0
100
AcDbSpline
70
0
71
2
72
6
73
3
74
0
42
0.000000001
43
0.0000000001
44
0.0000000001
40
0
40
0
40
0
40
1
40
1
40
1
10
117.2004596197946
20
-18.206554789135634
30
0
10
117.96807565334868
20
-18.206554789135634
30
0
10
118.62774648312163
20
-18.374470610211073
30
0
0
SPLINE
5
195
100
AcDbEntity
8
0
100
AcDbSpline
70
0
71
2
72
6
73
3
74
0
42
0.000000001
43
0.0000000001
44
0.0000000001
40
0
40
0
40
0
40
1
40
1
40
1
10
118.62774648312163
20
-18.374470610211073
30
0
10
119.29941095951628
20
-18.542386431286513
30
0
10
119.79116477612089
20
-18.9022053666808
30
0
0
SPLINE
5
196
100
AcDbEntity
8
0
100
AcDbSpline
70
0
71
2
72
6
73
3
74
0
42
0.000000001
43
0.0000000001
44
0.0000000001
40
0
40
0
40
0
40
1
40
1
40
1
10
119.79116477612089
20
-18.9022053666808
30
0
10
120.29491343144011
20
-19.262026686260878
30
0
10
120.58276810291838
20
-19.849733252117812
30
0
0
SPLINE
5
197
100
AcDbEntity
8
0
100
AcDbSpline
70
0
71
2
72
6
73
3
74
0
42
0.000000001
43
0.0000000001
44
0.0000000001
40
0
40
0
40
0
40
1
40
1
40
1
10
120.58276810291838
20
-19.849733252117812
30
0
10
120.87062515858244
20
-20.425444979260146
30
0
10
120.87062515858244
20
-21.253031630108534
30
0
0
SPLINE
5
198
100
AcDbEntity
8
0
100
AcDbSpline
70
0
71
2
72
6
73
3
74
0
42
0.000000001
43
0.0000000001
44
0.0000000001
40
0
40
0
40
0
40
1
40
1
40
1
10
119.70720686558317
20
-21.253031630108534
30
0
10
119.70720686558317
20
-20.713299650738417
30
0
10
119.51530255917143
20
-20.317498583386122
30
0
0
SPLINE
5
199
100
AcDbEntity
8
0
100
AcDbSpline
70
0
71
2
72
6
73
3
74
0
42
0.000000001
43
0.0000000001
44
0.0000000001
40
0
40
0
40
0
40
1
40
1
40
1
10
119.51530255917143
20
-20.317498583386122
30
0
10
119.33539309147429
20
-19.921697516033827
30
0
10
118.99956025723051
20
-19.669822592327773
30
0
0
SPLINE
5
200
100
AcDbEntity
8
0
100
AcDbSpline
70
0
71
2
72
6
73
3
74
0
42
0.000000001
43
0.0000000001
44
0.0000000001
40
0
40
0
40
0
40
1
40
1
40
1
10
118.99956025723051
20
-19.669822592327773
30
0
10
118.66372742298674
20
-19.417947668621718
30
0
10
118.19596209171843
20
-19.298008818218886
30
0
0
SPLINE
5
201
100
AcDbEntity
8
0
100
AcDbSpline
70
0
71
2
72
6
73
3
74
0
42
0.000000001
43
0.0000000001
44
0.0000000001
40
0
40
0
40
0
40
1
40
1
40
1
10
118.19596209171843
20
-19.298008818218886
30
0
10
117.74018921497893
20
-19.166075129101454
30
0
10
117.2004596197946
20
-19.166075129101454
30
0
0
LINE
5
202
100
AcDbEntity
8
0
100
AcDbLine
10
117.2004596197946
20
-19.166075129101454
30
0
11
115.84513702038359
21
-19.166075129101454
31
0
0
LINE
5
203
100
AcDbEntity
8
0
100
AcDbLine
10
115.84513702038359
20
-19.166075129101454
30
0
11
115.84513702038359
21
-25.247033972332655
31
0
0
LINE
5
204
100
AcDbEntity
8
0
100
AcDbLine
10
115.84513702038359
20
-25.247033972332655
30
0
11
116.15698136929106
21
-25.247033972332655
31
0
0
LINE
5
205
100
AcDbEntity
8
0
100
AcDbLine
10
116.15698136929106
20
-25.247033972332655
30
0
11
116.15698136929106
21
-23.339988131115614
31
0
0
LINE
5
206
100
AcDbEntity
8
0
100
AcDbLine
10
116.15698136929106
20
-23.339988131115614
30
0
11
117.2004596197946
21
-23.339988131115614
31
0
0
SPLINE
5
207
100
AcDbEntity
8
0
100
AcDbSpline
70
0
71
2
72
6
73
3
74
0
42
0.000000001
43
0.0000000001
44
0.0000000001
40
0
40
0
40
0
40
1
40
1
40
1
10
117.2004596197946
20
-23.339988131115614
30
0
10
117.74018921497893
20
-23.339988131115614
30
0
10
118.19596209171843
20
-23.220046896526991
30
0
0
SPLINE
5
208
100
AcDbEntity
8
0
100
AcDbSpline
70
0
71
2
72
6
73
3
74
0
42
0.000000001
43
0.0000000001
44
0.0000000001
40
0
40
0
40
0
40
1
40
1
40
1
10
118.19596209171843
20
-23.220046896526991
30
0
10
118.66372742298674
20
-23.08811320740956
30
0
10
118.99956025723051
20
-22.836240667889296
30
0
0
SPLINE
5
209
100
AcDbEntity
8
0
100
AcDbSpline
70
0
71
2
72
6
73
3
74
0
42
0.000000001
43
0.0000000001
44
0.0000000001
40
0
40
0
40
0
40
1
40
1
40
1
10
118.99956025723051
20
-22.836240667889296
30
0
10
119.33539309147429
20
-22.584365744183241
30
0
10
119.51530255917143
20
-22.188562292645155
30
0
0
SPLINE
5
210
100
AcDbEntity
8
0
100
AcDbSpline
70
0
71
2
72
6
73
3
74
0
42
0.000000001
43
0.0000000001
44
0.0000000001
40
0
40
0
40
0
40
1
40
1
40
1
10
119.51530255917143
20
-22.188562292645155
30
0
10
119.70720686558317
20
-21.79276122529286
30
0
10
119.70720686558317
20
-21.253031630108534
30
0
0
SPLINE
5
211
100
AcDbEntity
8
0
100
AcDbSpline
70
0
71
2
72
6
73
3
74
0
42
0.000000001
43
0.0000000001
44
0.0000000001
40
0
40
0
40
0
40
1
40
1
40
1
10
119.3713752234323
20
-21.253031630108534
30
0
10
119.3713752234323
20
-21.768773932049452
30
0
10
119.19146456364226
20
-22.11659802872914
30
0
0
SPLINE
5
212
100
AcDbEntity
8
0
100
AcDbSpline
70
0
71
2
72
6
73
3
74
0
42
0.000000001
43
0.0000000001
44
0.0000000001
40
0
40
0
40
0
40
1
40
1
40
1
10
119.19146456364226
20
-22.11659802872914
30
0
10
119.01155390385222
20
-22.464424509594618
30
0
10
118.71170439365935
20
-22.668322462628065
30
0
0
SPLINE
5
213
100
AcDbEntity
8
0
100
AcDbSpline
70
0
71
2
72
6
73
3
74
0
42
0.000000001
43
0.0000000001
44
0.0000000001
40
0
40
0
40
0
40
1
40
1
40
1
10
118.71170439365935
20
-22.668322462628065
30
0
10
118.41185369137358
20
-22.872222799847304
30
0
10
118.01605143192839
20
-22.968174357006728
30
0
0
SPLINE
5
214
100
AcDbEntity
8
0
100
AcDbSpline
70
0
71
2
72
6
73
3
74
0
42
0.000000001
43
0.0000000001
44
0.0000000001
40
0
40
0
40
0
40
1
40
1
40
1
10
118.01605143192839
20
-22.968174357006728
30
0
10
117.6322440111978
20
-23.052131075451552
30
0
10
117.2004596197946
20
-23.052131075451552
30
0
0
LINE
5
215
100
AcDbEntity
8
0
100
AcDbLine
10
117.2004596197946
20
-23.052131075451552
30
0
11
116.15698136929106
21
-23.052131075451552
31
0
0
LINE
5
216
100
AcDbEntity
8
0
100
AcDbLine
10
116.15698136929106
20
-23.052131075451552
30
0
11
116.15698136929106
21
-19.453929800579726
31
0
0
LINE
5
217
100
AcDbEntity
8
0
100
AcDbLine
10
116.15698136929106
20
-19.453929800579726
30
0
11
117.2004596197946
21
-19.453929800579726
31
0
0
SPLINE
5
218
100
AcDbEntity
8
0
100
AcDbSpline
70
0
71
2
72
6
73
3
74
0
42
0.000000001
43
0.0000000001
44
0.0000000001
40
0
40
0
40
0
40
1
40
1
40
1
10
117.2004596197946
20
-19.453929800579726
30
0
10
117.6322440111978
20
-19.453929800579726
30
0
10
118.01605143192839
20
-19.54988374192494
30
0
0
SPLINE
5
219
100
AcDbEntity
8
0
100
AcDbSpline
70
0
71
2
72
6
73
3
74
0
42
0.000000001
43
0.0000000001
44
0.0000000001
40
0
40
0
40
0
40
1
40
1
40
1
10
118.01605143192839
20
-19.54988374192494
30
0
10
118.41185369137358
20
-19.633840460369765
30
0
10
118.71170439365935
20
-19.837738413403212
30
0
0
SPLINE
5
220
100
AcDbEntity
8
0
100
AcDbSpline
70
0
71
2
72
6
73
3
74
0
42
0.000000001
43
0.0000000001
44
0.0000000001
40
0
40
0
40
0
40
1
40
1
40
1
10
118.71170439365935
20
-19.837738413403212
30
0
10
119.01155390385222
20
-20.041636366436659
30
0
10
119.19146456364226
20
-20.389462847302138
30
0
0
SPLINE
5
221
100
AcDbEntity
8
0
100
AcDbSpline
70
0
71
2
72
6
73
3
74
0
42
0.000000001
43
0.0000000001
44
0.0000000001
40
0
40
0
40
0
40
1
40
1
40
1
10
119.19146456364226
20
-20.389462847302138
30
0
10
119.3713752234323
20
-20.737289328167616
30
0
10
119.3713752234323
20
-21.253031630108534
30
0
0
LINE
5
222
100
AcDbEntity
8
0
100
AcDbLine
10
117.2004596197946
20
-22.140587706158339
30
0
11
117.30840601566862
21
-22.140587706158339
31
0
0
SPLINE
5
223
100
AcDbEntity
8
0
100
AcDbSpline
70
0
71
2
72
6
73
3
74
0
42
0.000000001
43
0.0000000001
44
0.0000000001
40
0
40
0
40
0
40
1
40
1
40
1
10
117.30840601566862
20
-22.140587706158339
30
0
10
117.81215347889494
20
-22.140587706158339
30
0
10
118.02804627064299
20
-21.912702459881483
30
0
0
SPLINE
5
224
100
AcDbEntity
8
0
100
AcDbSpline
70
0
71
2
72
6
73
3
74
0
42
0.000000001
43
0.0000000001
44
0.0000000001
40
0
40
0
40
0
40
1
40
1
40
1
10
118.02804627064299
20
-21.912702459881483
30
0
10
118.25593151691984
20
-21.672819990704237
30
0
10
118.25593151691984
20
-21.253031630108534
30
0
0
SPLINE
5
225
100
AcDbEntity
8
0
100
AcDbSpline
70
0
71
2
72
6
73
3
74
0
42
0.000000001
43
0.0000000001
44
0.0000000001
40
0
40
0
40
0
40
1
40
1
40
1
10
118.25593151691984
20
-21.253031630108534
30
0
10
118.25593151691984
20
-20.83324088532704
30
0
10
118.02804627064299
20
-20.605355639050185
30
0
0
SPLINE
5
226
100
AcDbEntity
8
0
100
AcDbSpline
70
0
71
2
72
6
73
3
74
0
42
0.000000001
43
0.0000000001
44
0.0000000001
40
0
40
0
40
0
40
1
40
1
40
1
10
118.02804627064299
20
-20.605355639050185
30
0
10
117.81215347889494
20
-20.36547555405873
30
0
10
117.30840601566862
20
-20.36547555405873
30
0
0
LINE
5
227
100
AcDbEntity
8
0
100
AcDbLine
10
117.30840601566862
20
-20.36547555405873
30
0
11
117.2004596197946
21
-20.36547555405873
31
0
0
LINE
5
228
100
AcDbEntity
8
0
100
AcDbLine
10
117.2004596197946
20
-20.36547555405873
30
0
11
117.2004596197946
21
-22.140587706158339
31
0
0
LINE
5
229
100
AcDbEntity
8
0
100
AcDbLine
10
121.47032417896818
20
-18.206554789135634
30
0
11
124.1329924071176
21
-18.206554789135634
31
0
0
LINE
5
230
100
AcDbEntity
8
0
100
AcDbLine
10
124.1329924071176
20
-18.206554789135634
30
0
11
124.1329924071176
21
-24.107602972576796
31
0
0
LINE
5
231
100
AcDbEntity
8
0
100
AcDbLine
10
124.1329924071176
20
-24.107602972576796
30
0
11
126.3398901427133
21
-24.107602972576796
31
0
0
LINE
5
232
100
AcDbEntity
8
0
100
AcDbLine
10
126.3398901427133
20
-24.107602972576796
30
0
11
126.3398901427133
21
-26.206554312298476
31
0
0
LINE
5
233
100
AcDbEntity
8
0
100
AcDbLine
10
126.3398901427133
20
-26.206554312298476
30
0
11
121.47032417896818
21
-26.206554312298476
31
0
0
LINE
5
234
100
AcDbEntity
8
0
100
AcDbLine
10
121.47032417896818
20
-26.206554312298476
30
0
11
121.47032417896818
21
-18.206554789135634
31
0
0
LINE
5
235
100
AcDbEntity
8
0
100
AcDbLine
10
125.66822685841154
20
-25.247033972332655
30
0
11
125.66822685841154
21
-24.959176916668593
31
0
0
LINE
5
236
100
AcDbEntity
8
0
100
AcDbLine
10
125.66822685841154
20
-24.959176916668593
30
0
11
122.98156895283293
21
-24.959176916668593
31
0
0
LINE
5
237
100
AcDbEntity
8
0
100
AcDbLine
10
122.98156895283293
20
-24.959176916668593
30
0
11
122.98156895283293
21
-19.166075129101454
31
0
0
LINE
5
238
100
AcDbEntity
8
0
100
AcDbLine
10
122.98156895283293
20
-19.166075129101454
30
0
11
122.66972460392546
21
-19.166075129101454
31
0
0
LINE
5
239
100
AcDbEntity
8
0
100
AcDbLine
10
122.66972460392546
20
-19.166075129101454
30
0
11
122.66972460392546
21
-25.247033972332655
31
0
0
LINE
5
240
100
AcDbEntity
8
0
100
AcDbLine
10
122.66972460392546
20
-25.247033972332655
30
0
11
125.66822685841154
21
-25.247033972332655
31
0
0
LINE
5
241
100
AcDbEntity
8
0
100
AcDbLine
10
129.13449444416594
20
-18.206554789135634
30
0
11
131.05353273991179
21
-18.206554789135634
31
0
0
LINE
5
242
100
AcDbEntity
8
0
100
AcDbLine
10
131.05353273991179
20
-18.206554789135634
30
0
11
134.08801712635588
21
-26.206554312298476
31
0
0
LINE
5
243
100
AcDbEntity
8
0
100
AcDbLine
10
134.08801712635588
20
-26.206554312298476
30
0
11
131.56927504185271
21
-26.206554312298476
31
0
0
LINE
5
244
100
AcDbEntity
8
0
100
AcDbLine
10
131.56927504185271
20
-26.206554312298476
30
0
11
131.30540766361784
21
-25.48691405732411
31
0
0
LINE
5
245
100
AcDbEntity
8
0
100
AcDbLine
10
131.30540766361784
20
-25.48691405732411
30
0
11
128.88261952045988
21
-25.48691405732411
31
0
0
LINE
5
246
100
AcDbEntity
8
0
100
AcDbLine
10
128.88261952045988
20
-25.48691405732411
30
0
11
128.61875214222502
21
-26.206554312298476
31
0
0
LINE
5
247
100
AcDbEntity
8
0
100
AcDbLine
10
128.61875214222502
20
-26.206554312298476
30
0
11
126.10001005772185
21
-26.206554312298476
31
0
0
LINE
5
248
100
AcDbEntity
8
0
100
AcDbLine
10
126.10001005772185
20
-26.206554312298476
30
0
11
129.13449444416594
21
-18.206554789135634
31
0
0
LINE
5
249
100
AcDbEntity
8
0
100
AcDbLine
10
130.63374199513029
20
-23.723796743939101
30
0
11
130.09401478413176
21
-22.320498365948378
31
0
0
LINE
5
250
100
AcDbEntity
8
0
100
AcDbLine
10
130.09401478413176
20
-22.320498365948378
30
0
11
129.55428280476164
21
-23.723796743939101
31
0
0
LINE
5
251
100
AcDbEntity
8
0
100
AcDbLine
10
129.55428280476164
20
-23.723796743939101
30
0
11
130.63374199513029
21
-23.723796743939101
31
0
0
LINE
5
252
100
AcDbEntity
8
0
100
AcDbLine
10
127.88711704853606
20
-25.247033972332655
30
0
11
128.11500229481291
21
-24.647334951946913
31
0
0
LINE
5
253
100
AcDbEntity
8
0
100
AcDbLine
10
128.11500229481291
20
-24.647334951946913
30
0
11
132.07302250507902
21
-24.647334951946913
31
0
0
LINE
5
254
100
AcDbEntity
8
0
100
AcDbLine
10
132.07302250507902
20
-24.647334951946913
30
0
11
132.30091013554167
21
-25.247033972332655
31
0
0
LINE
5
255
100
AcDbEntity
8
0
100
AcDbLine
10
132.30091013554167
20
-25.247033972332655
30
0
11
132.63674177769255
21
-25.247033972332655
31
0
0
LINE
5
256
100
AcDbEntity
8
0
100
AcDbLine
10
132.63674177769255
20
-25.247033972332655
30
0
11
130.32190003040861
21
-19.166075129101454
31
0
0
LINE
5
257
100
AcDbEntity
8
0
100
AcDbLine
10
130.32190003040861
20
-19.166075129101454
30
0
11
129.86612715366911
21
-19.166075129101454
31
0
0
LINE
5
258
100
AcDbEntity
8
0
100
AcDbLine
10
129.86612715366911
20
-19.166075129101454
30
0
11
127.55128540638518
21
-25.247033972332655
31
0
0
LINE
5
259
100
AcDbEntity
8
0
100
AcDbLine
10
127.55128540638518
20
-25.247033972332655
30
0
11
127.88711704853606
21
-25.247033972332655
31
0
0
LINE
5
260
100
AcDbEntity
8
0
100
AcDbLine
10
130.09401478413176
20
-19.453929800579726
30
0
11
131.96507849339079
21
-24.359477896282851
31
0
0
LINE
5
261
100
AcDbEntity
8
0
100
AcDbLine
10
131.96507849339079
20
-24.359477896282851
30
0
11
128.22294869068693
21
-24.359477896282851
31
0
0
LINE
5
262
100
AcDbEntity
8
0
100
AcDbLine
10
128.22294869068693
20
-24.359477896282851
30
0
11
130.09401478413176
21
-19.453929800579726
31
0
0
LINE
5
263
100
AcDbEntity
8
0
100
AcDbLine
10
136.09101452473234
20
-22.76427640397328
30
0
11
133.60825695637297
21
-18.206554789135634
31
0
0
LINE
5
264
100
AcDbEntity
8
0
100
AcDbLine
10
133.60825695637297
20
-18.206554789135634
30
0
11
136.45083584431242
21
-18.206554789135634
31
0
0
LINE
5
265
100
AcDbEntity
8
0
100
AcDbLine
10
136.45083584431242
20
-18.206554789135634
30
0
11
137.37437405232023
21
-19.897707838604628
31
0
0
LINE
5
266
100
AcDbEntity
8
0
100
AcDbLine
10
137.37437405232023
20
-19.897707838604628
30
0
11
138.28591742161345
21
-18.206554789135634
31
0
0
LINE
5
267
100
AcDbEntity
8
0
100
AcDbLine
10
138.28591742161345
20
-18.206554789135634
30
0
11
141.1284963095529
21
-18.206554789135634
31
0
0
LINE
5
268
100
AcDbEntity
8
0
100
AcDbLine
10
141.1284963095529
20
-18.206554789135634
30
0
11
138.64573635700773
21
-22.76427640397328
31
0
0
LINE
5
269
100
AcDbEntity
8
0
100
AcDbLine
10
138.64573635700773
20
-22.76427640397328
30
0
11
138.64573635700773
21
-26.206554312298476
31
0
0
LINE
5
270
100
AcDbEntity
8
0
100
AcDbLine
10
138.64573635700773
20
-26.206554312298476
30
0
11
136.09101452473234
21
-26.206554312298476
31
0
0
LINE
5
271
100
AcDbEntity
8
0
100
AcDbLine
10
136.09101452473234
20
-26.206554312298476
30
0
11
136.09101452473234
21
-22.76427640397328
31
0
0
LINE
5
272
100
AcDbEntity
8
0
100
AcDbLine
10
137.53029503468107
20
-25.247033972332655
30
0
11
137.53029503468107
21
-22.380467791149794
31
0
0
LINE
5
273
100
AcDbEntity
8
0
100
AcDbLine
10
137.53029503468107
20
-22.380467791149794
30
0
11
139.28141989353728
21
-19.166075129101454
31
0
0
LINE
5
274
100
AcDbEntity
8
0
100
AcDbLine
10
139.28141989353728
20
-19.166075129101454
30
0
11
138.90960611942839
21
-19.166075129101454
31
0
0
LINE
5
275
100
AcDbEntity
8
0
100
AcDbLine
10
138.90960611942839
20
-19.166075129101454
30
0
11
137.37437405232023
21
-22.008654017040907
31
0
0
LINE
5
276
100
AcDbEntity
8
0
100
AcDbLine
10
137.37437405232023
20
-22.008654017040907
30
0
11
135.82714714649748
21
-19.166075129101454
31
0
0
LINE
5
277
100
AcDbEntity
8
0
100
AcDbLine
10
135.82714714649748
20
-19.166075129101454
30
0
11
135.4673258269174
21
-19.166075129101454
31
0
0
LINE
5
278
100
AcDbEntity
8
0
100
AcDbLine
10
135.4673258269174
20
-19.166075129101454
30
0
11
137.206455847059
21
-22.380467791149794
31
0
0
LINE
5
279
100
AcDbEntity
8
0
100
AcDbLine
10
137.206455847059
20
-22.380467791149794
30
0
11
137.206455847059
21
-25.247033972332655
31
0
0
LINE
5
280
100
AcDbEntity
8
0
100
AcDbLine
10
137.206455847059
20
-25.247033972332655
30
0
11
137.53029503468107
21
-25.247033972332655
31
0
0
LINE
5
281
100
AcDbEntity
8
0
100
AcDbLine
10
141.30840935352873
20
-18.206554789135634
30
0
11
146.02204956654143
21
-18.206554789135634
31
0
0
LINE
5
282
100
AcDbEntity
8
0
100
AcDbLine
10
146.02204956654143
20
-18.206554789135634
30
0
11
146.02204956654143
21
-20.305503744671523
31
0
0
LINE
5
283
100
AcDbEntity
8
0
100
AcDbLine
10
146.02204956654143
20
-20.305503744671523
30
0
11
143.86313118580412
21
-20.305503744671523
31
0
0
LINE
5
284
100
AcDbEntity
8
0
100
AcDbLine
10
143.86313118580412
20
-20.305503744671523
30
0
11
143.86313118580412
21
-21.193059820721327
31
0
0
LINE
5
285
100
AcDbEntity
8
0
100
AcDbLine
10
143.86313118580412
20
-21.193059820721327
30
0
11
145.98606743458342
21
-21.193059820721327
31
0
0
LINE
5
286
100
AcDbEntity
8
0
100
AcDbLine
10
145.98606743458342
20
-21.193059820721327
30
0
11
145.98606743458342
21
-23.184064764568983
31
0
0
LINE
5
287
100
AcDbEntity
8
0
100
AcDbLine
10
145.98606743458342
20
-23.184064764568983
30
0
11
143.86313118580412
21
-23.184064764568983
31
0
0
LINE
5
288
100
AcDbEntity
8
0
100
AcDbLine
10
143.86313118580412
20
-23.184064764568983
30
0
11
143.86313118580412
21
-24.107602972576796
31
0
0
LINE
5
289
100
AcDbEntity
8
0
100
AcDbLine
10
143.86313118580412
20
-24.107602972576796
30
0
11
146.10600628498625
21
-24.107602972576796
31
0
0
LINE
5
290
100
AcDbEntity
8
0
100
AcDbLine
10
146.10600628498625
20
-24.107602972576796
30
0
11
146.10600628498625
21
-26.206554312298476
31
0
0
LINE
5
291
100
AcDbEntity
8
0
100
AcDbLine
10
146.10600628498625
20
-26.206554312298476
30
0
11
141.30840935352873
21
-26.206554312298476
31
0
0
LINE
5
292
100
AcDbEntity
8
0
100
AcDbLine
10
141.30840935352873
20
-26.206554312298476
30
0
11
141.30840935352873
21
-18.206554789135634
31
0
0
LINE
5
293
100
AcDbEntity
8
0
100
AcDbLine
10
145.21845020893645
20
-25.247033972332655
30
0
11
145.21845020893645
21
-24.959176916668593
31
0
0
LINE
5
294
100
AcDbEntity
8
0
100
AcDbLine
10
145.21845020893645
20
-24.959176916668593
30
0
11
142.81964935902189
21
-24.959176916668593
31
0
0
LINE
5
295
100
AcDbEntity
8
0
100
AcDbLine
10
142.81964935902189
20
-24.959176916668593
30
0
11
142.81964935902189
21
-22.332490820477187
31
0
0
LINE
5
296
100
AcDbEntity
8
0
100
AcDbLine
10
142.81964935902189
20
-22.332490820477187
30
0
11
145.09851135853361
21
-22.332490820477187
31
0
0
LINE
5
297
100
AcDbEntity
8
0
100
AcDbLine
10
145.09851135853361
20
-22.332490820477187
30
0
11
145.09851135853361
21
-22.044636148998915
31
0
0
LINE
5
298
100
AcDbEntity
8
0
100
AcDbLine
10
145.09851135853361
20
-22.044636148998915
30
0
11
142.81964935902189
21
-22.044636148998915
31
0
0
LINE
5
299
100
AcDbEntity
8
0
100
AcDbLine
10
142.81964935902189
20
-22.044636148998915
30
0
11
142.81964935902189
21
-19.453929800579726
31
0
0
LINE
5
300
100
AcDbEntity
8
0
100
AcDbLine
10
142.81964935902189
20
-19.453929800579726
30
0
11
145.21845020893645
21
-19.453929800579726
31
0
0
LINE
5
301
100
AcDbEntity
8
0
100
AcDbLine
10
145.21845020893645
20
-19.453929800579726
30
0
11
145.21845020893645
21
-19.166075129101454
31
0
0
LINE
5
302
100
AcDbEntity
8
0
100
AcDbLine
10
145.21845020893645
20
-19.166075129101454
30
0
11
142.50780739430022
21
-19.166075129101454
31
0
0
LINE
5
303
100
AcDbEntity
8
0
100
AcDbLine
10
142.50780739430022
20
-19.166075129101454
30
0
11
142.50780739430022
21
-25.247033972332655
31
0
0
LINE
5
304
100
AcDbEntity
8
0
100
AcDbLine
10
142.50780739430022
20
-25.247033972332655
30
0
11
145.21845020893645
21
-25.247033972332655
31
0
0
SPLINE
5
305
100
AcDbEntity
8
0
100
AcDbSpline
70
0
71
2
72
6
73
3
74
0
42
0.000000001
43
0.0000000001
44
0.0000000001
40
0
40
0
40
0
40
1
40
1
40
1
10
149.32039894703459
20
-23.423944849560439
30
0
10
149.78816666248869
20
-23.423944849560439
30
0
10
150.23193993214201
20
-23.327993292401015
30
0
0
LINE
5
306
100
AcDbEntity
8
0
100
AcDbLine
10
150.23193993214201
20
-23.327993292401015
30
0
11
151.37137093189787
21
-25.247033972332655
31
0
0
LINE
5
307
100
AcDbEntity
8
0
100
AcDbLine
10
151.37137093189787
20
-25.247033972332655
30
0
11
151.74318947437834
21
-25.247033972332655
31
0
0
LINE
5
308
100
AcDbEntity
8
0
100
AcDbLine
10
151.74318947437834
20
-25.247033972332655
30
0
11
150.54378666523527
21
-23.232041735241591
31
0
0
SPLINE
5
309
100
AcDbEntity
8
0
100
AcDbSpline
70
0
71
2
72
6
73
3
74
0
42
0.000000001
43
0.0000000001
44
0.0000000001
40
0
40
0
40
0
40
1
40
1
40
1
10
150.54378666523527
20
-23.232041735241591
30
0
10
151.19146027210783
20
-23.004156488964735
30
0
10
151.57527126911711
20
-22.536388773510634
30
0
0
SPLINE
5
310
100
AcDbEntity
8
0
100
AcDbSpline
70
0
71
2
72
6
73
3
74
0
42
0.000000001
43
0.0000000001
44
0.0000000001
40
0
40
0
40
0
40
1
40
1
40
1
10
151.57527126911711
20
-22.536388773510634
30
0
10
151.95907749775481
20
-22.056628603527724
30
0
10
151.95907749775481
20
-21.301006216595351
30
0
0
SPLINE
5
311
100
AcDbEntity
8
0
100
AcDbSpline
70
0
71
2
72
6
73
3
74
0
42
0.000000001
43
0.0000000001
44
0.0000000001
40
0
40
0
40
0
40
1
40
1
40
1
10
151.95907749775481
20
-21.301006216595351
30
0
10
151.95907749775481
20
-20.773271460125624
30
0
10
151.75518192890715
20
-20.377468008587538
30
0
0
SPLINE
5
312
100
AcDbEntity
8
0
100
AcDbSpline
70
0
71
2
72
6
73
3
74
0
42
0.000000001
43
0.0000000001
44
0.0000000001
40
0
40
0
40
0
40
1
40
1
40
1
10
151.75518192890715
20
-20.377468008587538
30
0
10
151.55128159168791
20
-19.981666941235243
30
0
10
151.19146027210783
20
-19.71779956300038
30
0
0
SPLINE
5
313
100
AcDbEntity
8
0
100
AcDbSpline
70
0
71
2
72
6
73
3
74
0
42
0.000000001
43
0.0000000001
44
0.0000000001
40
0
40
0
40
0
40
1
40
1
40
1
10
151.19146027210783
20
-19.71779956300038
30
0
10
150.84363617542814
20
-19.441937346050917
30
0
10
150.36387600544523
20
-19.310001272747694
30
0
0
SPLINE
5
314
100
AcDbEntity
8
0
100
AcDbSpline
70
0
71
2
72
6
73
3
74
0
42
0.000000001
43
0.0000000001
44
0.0000000001
40
0
40
0
40
0
40
1
40
1
40
1
10
150.36387600544523
20
-19.310001272747694
30
0
10
149.88411583546232
20
-19.166075129101454
30
0
10
149.32039894703459
20
-19.166075129101454
30
0
0
LINE
5
315
100
AcDbEntity
8
0
100
AcDbLine
10
149.32039894703459
20
-19.166075129101454
30
0
11
148.02504696491789
21
-19.166075129101454
31
0
0
LINE
5
316
100
AcDbEntity
8
0
100
AcDbLine
10
148.02504696491789
20
-19.166075129101454
30
0
11
148.02504696491789
21
-25.247033972332655
31
0
0
LINE
5
317
100
AcDbEntity
8
0
100
AcDbLine
10
148.02504696491789
20
-25.247033972332655
30
0
11
148.33688892963957
21
-25.247033972332655
31
0
0
LINE
5
318
100
AcDbEntity
8
0
100
AcDbLine
10
148.33688892963957
20
-25.247033972332655
30
0
11
148.33688892963957
21
-23.423944849560439
31
0
0
LINE
5
319
100
AcDbEntity
8
0
100
AcDbLine
10
148.33688892963957
20
-23.423944849560439
30
0
11
149.32039894703459
21
-23.423944849560439
31
0
0
LINE
5
320
100
AcDbEntity
8
0
100
AcDbLine
10
148.33688892963957
20
-23.136090178082167
30
0
11
148.33688892963957
21
-19.453929800579726
31
0
0
LINE
5
321
100
AcDbEntity
8
0
100
AcDbLine
10
148.33688892963957
20
-19.453929800579726
30
0
11
149.32039894703459
21
-19.453929800579726
31
0
0
SPLINE
5
322
100
AcDbEntity
8
0
100
AcDbSpline
70
0
71
2
72
6
73
3
74
0
42
0.000000001
43
0.0000000001
44
0.0000000001
40
0
40
0
40
0
40
1
40
1
40
1
10
149.32039894703459
20
-19.453929800579726
30
0
10
150.41185059193205
20
-19.453929800579726
30
0
10
151.02354683521818
20
-19.933689970562636
30
0
0
SPLINE
5
323
100
AcDbEntity
8
0
100
AcDbSpline
70
0
71
2
72
6
73
3
74
0
42
0.000000001
43
0.0000000001
44
0.0000000001
40
0
40
0
40
0
40
1
40
1
40
1
10
151.02354683521818
20
-19.933689970562636
30
0
10
151.64723553303313
20
-20.413450140545546
30
0
10
151.64723553303313
20
-21.301006216595351
30
0
0
SPLINE
5
324
100
AcDbEntity
8
0
100
AcDbSpline
70
0
71
2
72
6
73
3
74
0
42
0.000000001
43
0.0000000001
44
0.0000000001
40
0
40
0
40
0
40
1
40
1
40
1
10
151.64723553303313
20
-21.301006216595351
30
0
10
151.64723553303313
20
-22.188562292645155
30
0
10
151.02354683521818
20
-22.668322462628065
30
0
0
SPLINE
5
325
100
AcDbEntity
8
0
100
AcDbSpline
70
0
71
2
72
6
73
3
74
0
42
0.000000001
43
0.0000000001
44
0.0000000001
40
0
40
0
40
0
40
1
40
1
40
1
10
151.02354683521818
20
-22.668322462628065
30
0
10
150.41185059193205
20
-23.136090178082167
30
0
10
149.32039894703459
20
-23.136090178082167
30
0
0
LINE
5
326
100
AcDbEntity
8
0
100
AcDbLine
10
149.32039894703459
20
-23.136090178082167
30
0
11
148.33688892963957
21
-23.136090178082167
31
0
0
LINE
5
327
100
AcDbEntity
8
0
100
AcDbLine
10
146.82564415577482
20
-18.206554789135634
30
0
11
149.58426632526945
21
-18.206554789135634
31
0
0
SPLINE
5
328
100
AcDbEntity
8
0
100
AcDbSpline
70
0
71
2
72
6
73
3
74
0
42
0.000000001
43
0.0000000001
44
0.0000000001
40
0
40
0
40
0
40
1
40
1
40
1
10
149.58426632526945
20
-18.206554789135634
30
0
10
150.35188355091643
20
-18.206554789135634
30
0
10
150.99956192616057
20
-18.410452742169081
30
0
0
SPLINE
5
329
100
AcDbEntity
8
0
100
AcDbSpline
70
0
71
2
72
6
73
3
74
0
42
0.000000001
43
0.0000000001
44
0.0000000001
40
0
40
0
40
0
40
1
40
1
40
1
10
150.99956192616057
20
-18.410452742169081
30
0
10
151.65922798756193
20
-18.614350695202528
30
0
10
152.13898815754484
20
-19.010151762554823
30
0
0
SPLINE
5
330
100
AcDbEntity
8
0
100
AcDbSpline
70
0
71
2
72
6
73
3
74
0
42
0.000000001
43
0.0000000001
44
0.0000000001
40
0
40
0
40
0
40
1
40
1
40
1
10
152.13898815754484
20
-19.010151762554823
30
0
10
152.61874832752775
20
-19.405955214092909
30
0
10
152.88261570576262
20
-19.993661779949843
30
0
0
SPLINE
5
331
100
AcDbEntity
8
0
100
AcDbSpline
70
0
71
2
72
6
73
3
74
0
42
0.000000001
43
0.0000000001
44
0.0000000001
40
0
40
0
40
0
40
1
40
1
40
1
10
152.88261570576262
20
-19.993661779949843
30
0
10
153.15848030689787
20
-20.569373507092177
30
0
10
153.15848030689787
20
-21.32499589402455
30
0
0
SPLINE
5
332
100
AcDbEntity
8
0
100
AcDbSpline
70
0
71
2
72
6
73
3
74
0
42
0.000000001
43
0.0000000001
44
0.0000000001
40
0
40
0
40
0
40
1
40
1
40
1
10
153.15848030689787
20
-21.32499589402455
30
0
10
153.15848030689787
20
-21.924694914410292
30
0
10
152.99056210163664
20
-22.344485659191786
30
0
0
SPLINE
5
333
100
AcDbEntity
8
0
100
AcDbSpline
70
0
71
2
72
6
73
3
74
0
42
0.000000001
43
0.0000000001
44
0.0000000001
40
0
40
0
40
0
40
1
40
1
40
1
10
152.99056210163664
20
-22.344485659191786
30
0
10
152.82264389637541
20
-22.76427640397328
30
0
10
152.61874832752775
20
-23.040136236736952
30
0
0
SPLINE
5
334
100
AcDbEntity
8
0
100
AcDbSpline
70
0
71
2
72
6
73
3
74
0
42
0.000000001
43
0.0000000001
44
0.0000000001
40
0
40
0
40
0
40
1
40
1
40
1
10
152.61874832752775
20
-23.040136236736952
30
0
10
152.37887062672209
20
-23.351982969830214
30
0
10
152.07901634815764
20
-23.56787337739247
30
0
0
LINE
5
335
100
AcDbEntity
8
0
100
AcDbLine
10
152.07901634815764
20
-23.56787337739247
30
0
11
153.57826866749357
21
-26.206554312298476
31
0
0
LINE
5
336
100
AcDbEntity
8
0
100
AcDbLine
10
153.57826866749357
20
-26.206554312298476
30
0
11
150.57976879719328
21
-26.206554312298476
31
0
0
LINE
5
337
100
AcDbEntity
8
0
100
AcDbLine
10
150.57976879719328
20
-26.206554312298476
30
0
11
149.38036598805022
21
-24.179567236492812
31
0
0
LINE
5
338
100
AcDbEntity
8
0
100
AcDbLine
10
149.38036598805022
20
-24.179567236492812
30
0
11
149.38036598805022
21
-26.206554312298476
31
0
0
LINE
5
339
100
AcDbEntity
8
0
100
AcDbLine
10
149.38036598805022
20
-26.206554312298476
30
0
11
146.82564415577482
21
-26.206554312298476
31
0
0
LINE
5
340
100
AcDbEntity
8
0
100
AcDbLine
10
146.82564415577482
20
-26.206554312298476
30
0
11
146.82564415577482
21
-18.206554789135634
31
0
0
LINE
5
341
100
AcDbEntity
8
0
100
AcDbLine
10
149.38036598805022
20
-22.140587706158339
30
0
11
149.51230206135344
21
-22.140587706158339
31
0
0
SPLINE
5
342
100
AcDbEntity
8
0
100
AcDbSpline
70
0
71
2
72
6
73
3
74
0
42
0.000000001
43
0.0000000001
44
0.0000000001
40
0
40
0
40
0
40
1
40
1
40
1
10
149.51230206135344
20
-22.140587706158339
30
0
10
149.96807732227873
20
-22.140587706158339
30
0
10
150.27991928700041
20
-21.936689753124892
30
0
0
SPLINE
5
343
100
AcDbEntity
8
0
100
AcDbSpline
70
0
71
2
72
6
73
3
74
0
42
0.000000001
43
0.0000000001
44
0.0000000001
40
0
40
0
40
0
40
1
40
1
40
1
10
150.27991928700041
20
-21.936689753124892
30
0
10
150.60375847462248
20
-21.732791800091444
30
0
10
150.60375847462248
20
-21.253031630108534
30
0
0
SPLINE
5
344
100
AcDbEntity
8
0
100
AcDbSpline
70
0
71
2
72
6
73
3
74
0
42
0.000000001
43
0.0000000001
44
0.0000000001
40
0
40
0
40
0
40
1
40
1
40
1
10
150.60375847462248
20
-21.253031630108534
30
0
10
150.60375847462248
20
-20.773271460125624
30
0
10
150.27991928700041
20
-20.569373507092177
30
0
0
SPLINE
5
345
100
AcDbEntity
8
0
100
AcDbSpline
70
0
71
2
72
6
73
3
74
0
42
0.000000001
43
0.0000000001
44
0.0000000001
40
0
40
0
40
0
40
1
40
1
40
1
10
150.27991928700041
20
-20.569373507092177
30
0
10
149.96807732227873
20
-20.36547555405873
30
0
10
149.51230206135344
20
-20.36547555405873
30
0
0
LINE
5
346
100
AcDbEntity
8
0
100
AcDbLine
10
149.51230206135344
20
-20.36547555405873
30
0
11
149.38036598805022
21
-20.36547555405873
31
0
0
LINE
5
347
100
AcDbEntity
8
0
100
AcDbLine
10
149.38036598805022
20
-20.36547555405873
30
0
11
149.38036598805022
21
-22.140587706158339
31
0
0
SPLINE
5
348
100
AcDbEntity
8
0
100
AcDbSpline
70
0
71
2
72
6
73
3
74
0
42
0.000000001
43
0.0000000001
44
0.0000000001
40
0
40
0
40
0
40
1
40
1
40
1
10
157.51229920033049
20
-22.368472952435194
30
0
10
157.76417412403654
20
-21.888712782452284
30
0
10
157.83613838795256
20
-21.648832697460829
30
0
0
SPLINE
5
349
100
AcDbEntity
8
0
100
AcDbSpline
70
0
71
2
72
6
73
3
74
0
42
0.000000001
43
0.0000000001
44
0.0000000001
40
0
40
0
40
0
40
1
40
1
40
1
10
157.83613838795256
20
-21.648832697460829
30
0
10
157.90810265186857
20
-21.408952612469374
30
0
10
157.90810265186857
20
-21.193059820721327
30
0
0
SPLINE
5
350
100
AcDbEntity
8
0
100
AcDbSpline
70
0
71
2
72
6
73
3
74
0
42
0.000000001
43
0.0000000001
44
0.0000000001
40
0
40
0
40
0
40
1
40
1
40
1
10
157.90810265186857
20
-21.193059820721327
30
0
10
157.90810265186857
20
-20.389462847302138
30
0
10
156.92459263447356
20
-20.389462847302138
30
0
0
SPLINE
5
351
100
AcDbEntity
8
0
100
AcDbSpline
70
0
71
2
72
6
73
3
74
0
42
0.000000001
43
0.0000000001
44
0.0000000001
40
0
40
0
40
0
40
1
40
1
40
1
10
156.92459263447356
20
-20.389462847302138
30
0
10
156.82863869312834
20
-20.389462847302138
30
0
10
156.74468197468352
20
-20.401457686016737
30
0
0
SPLINE
5
352
100
AcDbEntity
8
0
100
AcDbSpline
70
0
71
2
72
6
73
3
74
0
42
0.000000001
43
0.0000000001
44
0.0000000001
40
0
40
0
40
0
40
1
40
1
40
1
10
156.74468197468352
20
-20.401457686016737
30
0
10
156.66072525623869
20
-20.401457686016737
30
0
10
156.58876099232268
20
-20.413450140545546
30
0
0
SPLINE
5
353
100
AcDbEntity
8
0
100
AcDbSpline
70
0
71
2
72
6
73
3
74
0
42
0.000000001
43
0.0000000001
44
0.0000000001
40
0
40
0
40
0
40
1
40
1
40
1
10
156.58876099232268
20
-20.413450140545546
30
0
10
156.52878918293547
20
-20.425444979260146
30
0
10
156.43284000996184
20
-20.425444979260146
30
0
0
LINE
5
354
100
AcDbEntity
8
0
100
AcDbLine
10
156.43284000996184
20
-20.425444979260146
30
0
11
156.43284000996184
21
-18.206554789135634
31
0
0
SPLINE
5
355
100
AcDbEntity
8
0
100
AcDbSpline
70
0
71
2
72
6
73
3
74
0
42
0.000000001
43
0.0000000001
44
0.0000000001
40
0
40
0
40
0
40
1
40
1
40
1
10
156.43284000996184
20
-18.206554789135634
30
0
10
156.60075344685148
20
-18.170572657177626
30
0
10
156.73268952015471
20
-18.146585363934218
30
0
0
SPLINE
5
356
100
AcDbEntity
8
0
100
AcDbSpline
70
0
71
2
72
6
73
3
74
0
42
0.000000001
43
0.0000000001
44
0.0000000001
40
0
40
0
40
0
40
1
40
1
40
1
10
156.73268952015471
20
-18.146585363934218
30
0
10
156.86462082508635
20
-18.122595686505019
30
0
10
156.98456444386076
20
-18.11060323197621
30
0
0
SPLINE
5
357
100
AcDbEntity
8
0
100
AcDbSpline
70
0
71
2
72
6
73
3
74
0
42
0.000000001
43
0.0000000001
44
0.0000000001
40
0
40
0
40
0
40
1
40
1
40
1
10
156.98456444386076
20
-18.11060323197621
30
0
10
157.1164957487924
20
-18.09860839326161
30
0
10
157.24843182209563
20
-18.09860839326161
30
0
0
SPLINE
5
358
100
AcDbEntity
8
0
100
AcDbSpline
70
0
71
2
72
6
73
3
74
0
42
0.000000001
43
0.0000000001
44
0.0000000001
40
0
40
0
40
0
40
1
40
1
40
1
10
157.24843182209563
20
-18.09860839326161
30
0
10
157.39236034992766
20
-18.086613554547011
30
0
10
157.5722710097177
20
-18.086613554547011
30
0
0
SPLINE
5
359
100
AcDbEntity
8
0
100
AcDbSpline
70
0
71
2
72
6
73
3
74
0
42
0.000000001
43
0.0000000001
44
0.0000000001
40
0
40
0
40
0
40
1
40
1
40
1
10
157.5722710097177
20
-18.086613554547011
30
0
10
158.14798035267424
20
-18.086613554547011
30
0
10
158.69970478657316
20
-18.218549627850233
30
0
0
SPLINE
5
360
100
AcDbEntity
8
0
100
AcDbSpline
70
0
71
2
72
6
73
3
74
0
42
0.000000001
43
0.0000000001
44
0.0000000001
40
0
40
0
40
0
40
1
40
1
40
1
10
158.69970478657316
20
-18.218549627850233
30
0
10
159.2634216750009
20
-18.338488478253065
30
0
10
159.7071997130258
20
-18.626345533917128
30
0
0
SPLINE
5
361
100
AcDbEntity
8
0
100
AcDbSpline
70
0
71
2
72
6
73
3
74
0
42
0.000000001
43
0.0000000001
44
0.0000000001
40
0
40
0
40
0
40
1
40
1
40
1
10
159.7071997130258
20
-18.626345533917128
30
0
10
160.15097775105068
20
-18.914200205395399
30
0
10
160.42684235218593
20
-19.39396037537831
30
0
0
SPLINE
5
362
100
AcDbEntity
8
0
100
AcDbSpline
70
0
71
2
72
6
73
3
74
0
42
0.000000001
43
0.0000000001
44
0.0000000001
40
0
40
0
40
0
40
1
40
1
40
1
10
160.42684235218593
20
-19.39396037537831
30
0
10
160.7027021849496
20
-19.87372054536122
30
0
10
160.7027021849496
20
-20.569373507092177
30
0
0
SPLINE
5
363
100
AcDbEntity
8
0
100
AcDbSpline
70
0
71
2
72
6
73
3
74
0
42
0.000000001
43
0.0000000001
44
0.0000000001
40
0
40
0
40
0
40
1
40
1
40
1
10
160.7027021849496
20
-20.569373507092177
30
0
10
160.7027021849496
20
-20.893210310528456
30
0
10
160.63073792103359
20
-21.217049498150526
30
0
0
SPLINE
5
364
100
AcDbEntity
8
0
100
AcDbSpline
70
0
71
2
72
6
73
3
74
0
42
0.000000001
43
0.0000000001
44
0.0000000001
40
0
40
0
40
0
40
1
40
1
40
1
10
160.63073792103359
20
-21.217049498150526
30
0
10
160.55877365711757
20
-21.528893847057997
30
0
10
160.40285267475673
20
-21.900707621166884
30
0
0
SPLINE
5
365
100
AcDbEntity
8
0
100
AcDbSpline
70
0
71
2
72
6
73
3
74
0
42
0.000000001
43
0.0000000001
44
0.0000000001
40
0
40
0
40
0
40
1
40
1
40
1
10
160.40285267475673
20
-21.900707621166884
30
0
10
160.2589241469247
20
-22.272521395275771
30
0
10
160.01904644611903
20
-22.740286726544081
30
0
0
SPLINE
5
366
100
AcDbEntity
8
0
100
AcDbSpline
70
0
71
2
72
6
73
3
74
0
42
0.000000001
43
0.0000000001
44
0.0000000001
40
0
40
0
40
0
40
1
40
1
40
1
10
160.01904644611903
20
-22.740286726544081
30
0
10
159.79116119984221
20
-23.196059603283583
30
0
10
159.47931446674895
20
-23.807753462383925
30
0
0
LINE
5
367
100
AcDbEntity
8
0
100
AcDbLine
10
159.47931446674895
20
-23.807753462383925
30
0
11
159.32339348438811
21
-24.107602972576796
31
0
0
LINE
5
368
100
AcDbEntity
8
0
100
AcDbLine
10
159.32339348438811
20
-24.107602972576796
30
0
11
160.83463825825282
21
-24.107602972576796
31
0
0
LINE
5
369
100
AcDbEntity
8
0
100
AcDbLine
10
160.83463825825282
20
-24.107602972576796
30
0
11
160.15097775105068
21
-26.206554312298476
31
0
0
LINE
5
370
100
AcDbEntity
8
0
100
AcDbLine
10
160.15097775105068
20
-26.206554312298476
30
0
11
155.4973045790536
21
-26.206554312298476
31
0
0
LINE
5
371
100
AcDbEntity
8
0
100
AcDbLine
10
155.49730457905363
20
-26.206554312298476
30
0
11
157.51229920033049
21
-22.368472952435194
31
0
0
LINE
5
372
100
AcDbEntity
8
0
100
AcDbLine
10
159.50330414417814
20
-25.247033972332655
30
0
11
159.61125054005217
21
-24.959176916668593
31
0
0
LINE
5
373
100
AcDbEntity
8
0
100
AcDbLine
10
159.61125054005217
20
-24.959176916668593
30
0
11
157.64423527363371
21
-24.959176916668593
31
0
0
LINE
5
374
100
AcDbEntity
8
0
100
AcDbLine
10
157.64423527363371
20
-24.959176916668593
30
0
11
158.99955429676604
21
-22.392462629864394
31
0
0
SPLINE
5
375
100
AcDbEntity
8
0
100
AcDbSpline
70
0
71
2
72
6
73
3
74
0
42
0.000000001
43
0.0000000001
44
0.0000000001
40
0
40
0
40
0
40
1
40
1
40
1
10
158.99955429676604
20
-22.392462629864394
30
0
10
159.21544708851408
20
-21.972671885082899
30
0
10
159.34738316181731
20
-21.576868433544814
30
0
0
SPLINE
5
376
100
AcDbEntity
8
0
100
AcDbSpline
70
0
71
2
72
6
73
3
74
0
42
0.000000001
43
0.0000000001
44
0.0000000001
40
0
40
0
40
0
40
1
40
1
40
1
10
159.34738316181731
20
-21.576868433544814
30
0
10
159.49131168964934
20
-21.181067366192519
30
0
10
159.49131168964934
20
-20.773271460125624
30
0
0
SPLINE
5
377
100
AcDbEntity
8
0
100
AcDbSpline
70
0
71
2
72
6
73
3
74
0
42
0.000000001
43
0.0000000001
44
0.0000000001
40
0
40
0
40
0
40
1
40
1
40
1
10
159.49131168964934
20
-20.773271460125624
30
0
10
159.49131168964934
20
-19.981666941235243
30
0
10
158.97556938770842
20
-19.573871035168349
30
0
0
SPLINE
5
378
100
AcDbEntity
8
0
100
AcDbSpline
70
0
71
2
72
6
73
3
74
0
42
0.000000001
43
0.0000000001
44
0.0000000001
40
0
40
0
40
0
40
1
40
1
40
1
10
158.97556938770842
20
-19.573871035168349
30
0
10
158.47181954029631
20
-19.166075129101454
30
0
10
157.66822018269133
20
-19.166075129101454
30
0
0
SPLINE
5
379
100
AcDbEntity
8
0
100
AcDbSpline
70
0
71
2
72
6
73
3
74
0
42
0.000000001
43
0.0000000001
44
0.0000000001
40
0
40
0
40
0
40
1
40
1
40
1
10
157.66822018269133
20
-19.166075129101454
30
0
10
157.63223805073332
20
-19.166075129101454
30
0
10
157.59625591877531
20
-19.178069967816054
30
0
0
SPLINE
5
380
100
AcDbEntity
8
0
100
AcDbSpline
70
0
71
2
72
6
73
3
74
0
42
0.000000001
43
0.0000000001
44
0.0000000001
40
0
40
0
40
0
40
1
40
1
40
1
10
157.59625591877531
20
-19.178069967816054
30
0
10
157.5722710097177
20
-19.178069967816054
30
0
10
157.5482813322885
20
-19.178069967816054
30
0
0
LINE
5
381
100
AcDbEntity
8
0
100
AcDbLine
10
157.5482813322885
20
-19.178069967816054
30
0
11
157.51229920033049
21
-19.178069967816054
31
0
0
LINE
5
382
100
AcDbEntity
8
0
100
AcDbLine
10
157.51229920033049
20
-19.178069967816054
30
0
11
157.51229920033049
21
-19.465924639294325
31
0
0
LINE
5
383
100
AcDbEntity
8
0
100
AcDbLine
10
157.51229920033049
20
-19.465924639294325
30
0
11
157.5482813322885
21
-19.465924639294325
31
0
0
SPLINE
5
384
100
AcDbEntity
8
0
100
AcDbSpline
70
0
71
2
72
6
73
3
74
0
42
0.000000001
43
0.0000000001
44
0.0000000001
40
0
40
0
40
0
40
1
40
1
40
1
10
157.5482813322885
20
-19.465924639294325
30
0
10
157.5722710097177
20
-19.465924639294325
30
0
10
157.59625591877531
20
-19.465924639294325
30
0
0
SPLINE
5
385
100
AcDbEntity
8
0
100
AcDbSpline
70
0
71
2
72
6
73
3
74
0
42
0.000000001
43
0.0000000001
44
0.0000000001
40
0
40
0
40
0
40
1
40
1
40
1
10
157.59625591877531
20
-19.465924639294325
30
0
10
157.63223805073332
20
-19.453929800579726
30
0
10
157.66822018269133
20
-19.453929800579726
30
0
0
SPLINE
5
386
100
AcDbEntity
8
0
100
AcDbSpline
70
0
71
2
72
6
73
3
74
0
42
0.000000001
43
0.0000000001
44
0.0000000001
40
0
40
0
40
0
40
1
40
1
40
1
10
157.66822018269133
20
-19.453929800579726
30
0
10
158.35188068989348
20
-19.453929800579726
30
0
10
158.75967659596037
20
-19.801756281445204
30
0
0
SPLINE
5
387
100
AcDbEntity
8
0
100
AcDbSpline
70
0
71
2
72
6
73
3
74
0
42
0.000000001
43
0.0000000001
44
0.0000000001
40
0
40
0
40
0
40
1
40
1
40
1
10
158.75967659596037
20
-19.801756281445204
30
0
10
159.17946495655607
20
-20.137590307781874
30
0
10
159.17946495655607
20
-20.785263914654433
30
0
0
SPLINE
5
388
100
AcDbEntity
8
0
100
AcDbSpline
70
0
71
2
72
6
73
3
74
0
42
0.000000001
43
0.0000000001
44
0.0000000001
40
0
40
0
40
0
40
1
40
1
40
1
10
159.17946495655607
20
-20.785263914654433
30
0
10
159.17946495655607
20
-21.121097940991103
30
0
10
159.05952610615324
20
-21.492911715099989
30
0
0
SPLINE
5
389
100
AcDbEntity
8
0
100
AcDbSpline
70
0
71
2
72
6
73
3
74
0
42
0.000000001
43
0.0000000001
44
0.0000000001
40
0
40
0
40
0
40
1
40
1
40
1
10
159.05952610615324
20
-21.492911715099989
30
0
10
158.93958725575041
20
-21.852730650494276
30
0
10
158.72369446400236
20
-22.272521395275771
30
0
0
LINE
5
390
100
AcDbEntity
8
0
100
AcDbLine
10
158.72369446400236
20
-22.272521395275771
30
0
11
157.15247788075041
21
-25.247033972332655
31
0
0
LINE
5
391
100
AcDbEntity
8
0
100
AcDbLine
10
157.15247788075041
20
-25.247033972332655
30
0
11
159.50330414417814
21
-25.247033972332655
31
0
0
ENDSEC
0
SECTION
2
OBJECTS
0
DICTIONARY
5
C
100
AcDbDictionary
3
ACAD_GROUP
350
D
3
ACAD_MLINESTYLE
350
17
0
DICTIONARY
5
D
100
AcDbDictionary
0
DICTIONARY
5
1A
330
C
100
AcDbDictionary
0
DICTIONARY
5
17
100
AcDbDictionary
0
ENDSEC
0
EOF
